<?xml version="1.0" encoding="UTF-8"?>
<svg id="_レイヤー_2" data-name="レイヤー 2" xmlns="http://www.w3.org/2000/svg" viewBox="0 0 240.26 240.26">
  <defs>
    <style>
      .cls-1 {
        fill: #4f2a2a;
      }
    </style>
  </defs>
  <path class="cls-1" d="M199.73,61.53s-12.97,3.12-17.62-20.39c-2.97-15.03-6.83-23.99-12.93-29.11-5.46-4.59-15.01-7.49-24.99-3.73-16.28,6.13-16.94,19.86-14.74,33.03,1.34,8.04,6.46,26.77,10.76,45.94,2.65,11.82,3.85,18.23,3.33,24.05-.64,7.18-3.51,14.84-15.02,19.45-8.71,3.49-17.62,1.15-23.31-2.82-6.83-4.76-8.66-11.92-8.09-17.43.62-5.91,3.04-10.2,5.74-13.21,3.73-4.16,9.96-7.09,17.76-6.94,12.46.23,15.56,8.33,15.56,8.33,0,0-1.24-13.5-18.12-20.31-10.81-4.37-27.77-1.39-38.36,6.88-9.32,7.28-18.67,19.08-17.9,35.78.79,17.07,9.7,25.79,17.72,31.38,7.22,5.04,24.5,11.22,41.87,8.94,15.32-2.01,28.91-11.68,34.87-28.06,4.54-12.48,2.28-23.83-4.31-44.65-2.7-8.52-10.48-26.34-14.65-37.65-1.85-5.01-4.6-14.07-3.54-21.06s4.79-11.2,9.67-12.06,9.29.38,11.87,3.64,5.65,9.38,6.34,15.48c.58,5.15.46,13.53,2.09,19.56s7.09,11.87,15.22,13.21c10.76,1.77,18.48-3.73,20.78-8.23Z"/>
  <path class="cls-1" d="M29.83,138.09s-1.94,4.31,5.76,8.71c7.07,4.05,30.78,8.8,37.79,11.87,11.63,5.1,21.45,12.38,30.89,27.7s10.36,26.53,10.36,26.53c0,0,.88-16.83,12.11-31.38,11.23-14.55,22.6-21.57,32.68-25.02,10.09-3.45,29.02-1.84,36.75-9.7,4.29-4.36,6.01-7.02,6.01-7.02,0,0-5.58,21.23-11.11,32.04-3.01,5.9-10.34,20.91-32.94,24.89-17.34,3.06-27.43,2.67-31.66,9.3-.63.98,3.34-16.32,18.08-28.99,13.18-11.33,31.46-17.84,36.06-18.26,0,0-18.38-1.37-36.96,12.57-10.28,7.72-15.63,16.97-19.47,24.87-2.84,5.84-5.86,21.9-7.17,31.05-.76,5.31-2.43,11.49-4.21-.38s-6.71-25.98-12.81-34.6c-5.79-8.19-14.01-18.97-26.07-25.16-9.19-4.71-26.07-9.21-26.07-9.21,0,0,16.64,7.32,28.85,16.72,10.69,8.23,11.76,10.71,17.36,17.74,3.83,4.82,10.28,17.23,7.64,14.14-3.85-4.5-20.68-6.66-32.7-12.25-20.49-9.52-30.16-25.03-30.16-25.03,0,0-14.14-18.12-9.03-31.14Z"/>
</svg>