<?xml version="1.0" encoding="UTF-8"?>
<svg xmlns="http://www.w3.org/2000/svg" viewBox="0 0 257.95 155.91">
  <defs>
    <style>
      .cls-1 {
        fill: #1e2a43;
      }

      .cls-2 {
        fill: #f6f2ee;
      }

      .cls-3 {
        fill: none;
        stroke: #f6f2ee;
        stroke-miterlimit: 10;
        stroke-width: .1px;
      }
    </style>
  </defs>
  <g id="_レイヤー_2" data-name="レイヤー 2">
    <rect class="cls-2" width="257.95" height="155.91"/>
  </g>
  <g id="_レイヤー_3" data-name="レイヤー 3">
    <polygon class="cls-1" points="257.95 0 139.18 155.91 0 155.91 0 0 257.95 0"/>
    <g>
      <path class="cls-2" d="M80.58,64.43c.1-.34.19-.68.28-1.01l.57-2.14c.09-.34.14-.6.14-.76,0-.08-.01-.14-.03-.18-.03-.07-.1-.11-.2-.14-.05-.01-.15-.03-.3-.04-.04,0-.06-.03-.06-.08,0-.05.02-.08.06-.08.33.02.6.03.82.03s.44,0,.65-.03c.04,0,.06.02.06.08,0,.04-.02.07-.07.08-.12.02-.21.04-.27.06-.05.02-.11.06-.17.12-.09.11-.2.42-.35.93l-.71,2.51c-.2.68-.31,1.09-.35,1.24-.15.07-.23.11-.25.11-.02,0-.03-.02-.03-.05-.11-.42-.24-.87-.38-1.35l-.56-1.89c-.1-.36-.17-.58-.19-.65-.02.06-.1.31-.24.75l-.59,1.85c-.13.39-.25.8-.38,1.23-.14.07-.22.11-.23.11-.02,0-.03-.01-.04-.04-.12-.45-.24-.9-.37-1.35l-.71-2.46c-.15-.54-.28-.86-.37-.96-.06-.06-.13-.1-.21-.12-.03,0-.12-.02-.26-.04-.04,0-.06-.03-.06-.08,0-.05.02-.08.06-.08.32.02.57.03.74.03.25,0,.52,0,.83-.03.05,0,.07.02.07.08,0,.04-.02.07-.07.08-.28.03-.44.09-.49.19-.01.04-.02.08-.02.13,0,.11.06.38.17.79l.61,2.12c.18.64.28.98.29,1.02l.3-.98.53-1.65c.02-.07.08-.27.18-.58.05-.17.1-.32.13-.43-.07-.21-.14-.36-.2-.43-.06-.07-.13-.11-.19-.13-.05-.02-.13-.03-.25-.04-.04,0-.06-.03-.06-.08,0-.05.02-.08.06-.08.31.02.55.03.73.03.18,0,.43,0,.73-.03.04,0,.06.02.06.08,0,.05-.02.07-.06.08-.19.03-.3.05-.35.06-.04.02-.08.05-.11.11-.02.04-.02.08-.02.13,0,.1.07.36.2.8l.63,2.13c.16.52.26.87.3,1.03Z"/>
      <path class="cls-2" d="M83.23,63.17v.3c-.01.45.11.81.37,1.07.2.21.44.31.71.31.25,0,.46-.05.62-.14.13-.08.26-.2.38-.37.02-.04.05-.05.07-.05.02,0,.03,0,.05.02.03.02.05.04.05.06,0,.02,0,.04-.02.06-.26.47-.66.71-1.2.71-.46,0-.82-.17-1.1-.52-.24-.3-.36-.67-.36-1.12,0-.51.15-.93.44-1.26.26-.29.59-.44.98-.44s.73.16.96.49c.17.23.26.48.27.75,0,.05-.01.08-.03.11-.02.02-.06.03-.11.03-.46-.01-.93-.02-1.38-.02-.26,0-.5,0-.71,0ZM83.28,62.95c.22,0,.44,0,.65,0,.36,0,.71,0,1.03-.03.05,0,.07-.03.07-.09v-.02c-.04-.24-.13-.44-.26-.58-.14-.15-.31-.23-.52-.23-.25,0-.46.1-.63.29-.15.16-.26.38-.33.66Z"/>
      <path class="cls-2" d="M87.05,62.41c.11-.2.28-.35.49-.46.17-.09.33-.14.48-.14.49,0,.86.18,1.11.55.21.3.31.68.31,1.13,0,.51-.15.92-.46,1.24-.27.27-.61.41-1.02.41-.3,0-.6-.13-.89-.38-.02-.02-.04-.03-.05-.03-.01,0-.03,0-.04.03l-.14.2c-.04.06-.09.09-.13.09-.04,0-.06-.02-.06-.05,0,0,0-.02,0-.04.03-.33.05-.82.05-1.44v-2.61c0-.32,0-.52-.03-.62-.02-.1-.08-.15-.18-.15-.02,0-.03,0-.05,0l-.17.02s-.02,0-.03,0c-.03,0-.05-.02-.05-.07,0-.01,0-.02,0-.03,0-.03.02-.05.06-.06.23-.06.48-.16.76-.27.05,0,.08.02.08.05-.02.61-.03,1.17-.03,1.66v.96ZM87.05,63.93c0,.15,0,.26.02.33.02.08.06.16.11.25.2.29.47.44.8.44s.6-.16.8-.47c.17-.27.26-.59.26-.97,0-.43-.11-.78-.34-1.04-.19-.22-.42-.33-.7-.33-.34,0-.6.13-.8.39-.07.09-.11.18-.12.27-.01.06-.02.15-.02.28v.86Z"/>
      <path class="cls-2" d="M93.05,65.8l-.19-.09,2.65-6.37.19.08-2.65,6.38Z"/>
      <path class="cls-2" d="M103.25,60.08c.03.35.07.73.12,1.14,0,.01,0,.02,0,.03,0,.03-.02.05-.06.05-.01,0-.02,0-.03,0-.02,0-.04-.02-.05-.05-.13-.36-.32-.64-.59-.85-.26-.19-.59-.29-.99-.29-.62,0-1.13.25-1.52.74-.35.44-.52.99-.52,1.65,0,.76.23,1.37.69,1.83.39.39.88.58,1.44.58.6,0,1.05-.14,1.36-.42.02-.17.03-.33.03-.49,0-.4,0-.64-.01-.72,0-.08-.03-.16-.07-.22-.06-.1-.23-.17-.5-.19-.04,0-.06-.03-.06-.08s.02-.07.06-.07c.35.02.61.03.78.03.14,0,.37,0,.69-.03.04,0,.06.03.06.08,0,.04-.02.07-.06.08-.13,0-.22.02-.27.04-.07.02-.12.07-.15.13-.06.09-.09.37-.09.83,0,.3.01.65.04,1.04,0,.03-.02.04-.05.04-.11-.01-.19-.02-.25-.02-.11,0-.32.03-.62.09-.37.06-.7.09-.99.09-.83,0-1.47-.3-1.93-.9-.37-.48-.55-1.05-.55-1.72,0-.45.1-.87.3-1.27.21-.41.49-.73.85-.97.4-.26.85-.39,1.35-.39.29,0,.58.04.85.11.23.06.42.09.55.09.07,0,.14,0,.21-.01Z"/>
      <path class="cls-2" d="M105.71,62.59c.33-.52.64-.77.93-.77.22,0,.33.06.33.18,0,.08-.04.16-.11.24-.06.06-.12.1-.18.1-.05,0-.1-.01-.17-.04-.06-.03-.12-.05-.17-.05-.14,0-.29.13-.46.38-.12.17-.17.36-.17.57v.83c0,.41.02.65.06.73.04.07.17.12.4.14.04,0,.05.03.05.06,0,.05-.02.07-.05.07-.33-.01-.54-.02-.63-.02-.03,0-.24,0-.61.02-.04,0-.05-.02-.05-.06s.02-.06.05-.07c.2-.02.32-.07.36-.14.05-.09.08-.34.08-.73v-1c0-.3,0-.51-.03-.62-.02-.1-.09-.15-.21-.15h-.05l-.19.02h-.03s-.04-.02-.05-.07c0,0,0-.02,0-.03,0-.03.02-.05.06-.06.2-.06.46-.15.77-.28.05,0,.08.02.08.06,0,.14,0,.37,0,.68Z"/>
      <path class="cls-2" d="M109.58,64.71c-.25.29-.59.43-1.02.43-.28,0-.5-.09-.65-.27-.11-.13-.17-.27-.17-.43,0-.28.08-.49.24-.64.13-.11.39-.24.8-.38.31-.11.52-.2.62-.27.1-.07.15-.16.15-.27v-.15c0-.28-.05-.47-.14-.58-.08-.1-.21-.15-.39-.15-.24,0-.42.06-.55.19-.07.07-.11.18-.11.34,0,.18-.12.27-.37.27-.1,0-.15-.05-.15-.15,0-.21.13-.41.38-.58.23-.17.49-.25.79-.25.4,0,.66.1.79.31.08.13.12.32.12.59v1.52c-.02.44.08.66.3.66.06,0,.12-.03.19-.08.01,0,.03-.01.04-.01.02,0,.03,0,.05.03.01.02.02.03.02.05,0,.02,0,.03-.02.04-.14.12-.3.18-.47.18-.12,0-.23-.04-.31-.13-.07-.07-.11-.16-.14-.26ZM109.55,63.25c-.11.12-.37.25-.78.39-.42.15-.64.38-.64.69,0,.19.06.34.19.44.1.08.23.13.39.13.27,0,.48-.07.64-.22.13-.12.19-.26.19-.42v-1.01Z"/>
      <path class="cls-2" d="M112.02,64.73v.75c0,.54.02.84.07.92.05.08.2.14.45.15.04,0,.05.02.05.07s-.02.07-.05.07c-.2-.01-.42-.02-.65-.02-.09,0-.31,0-.67.02-.04,0-.06-.02-.06-.06,0-.05.02-.07.06-.07.21-.02.34-.07.38-.15.04-.08.06-.38.06-.92v-2.44c0-.33,0-.54-.03-.63-.02-.1-.09-.14-.2-.14h-.05l-.18.02h-.03s-.05-.02-.06-.07v-.02s.02-.05.07-.07c.22-.06.48-.16.76-.28.06,0,.09.03.09.08-.02.16-.03.31-.03.47.13-.19.31-.35.52-.46.17-.08.33-.13.48-.13.47,0,.83.17,1.08.52.22.29.32.67.32,1.14,0,.5-.15.91-.46,1.24-.27.29-.6.43-.99.43s-.71-.14-.96-.41ZM112.98,62.12c-.32,0-.59.13-.8.39-.08.1-.13.19-.14.28,0,.04-.01.13-.01.28v.85c0,.18,0,.29.02.35.02.09.06.18.12.27.21.27.48.4.81.4s.58-.15.78-.46c.17-.27.26-.6.26-.99,0-.44-.12-.78-.35-1.04-.19-.21-.42-.32-.7-.32Z"/>
      <path class="cls-2" d="M115.88,64.02v-3.1c0-.3-.01-.51-.03-.62-.02-.1-.09-.15-.21-.15-.01,0-.03,0-.04,0l-.19.02s-.02,0-.03,0c-.03,0-.05-.02-.05-.07,0-.02,0-.03,0-.03,0-.03.02-.05.07-.06.24-.06.5-.16.78-.28.06,0,.09.02.09.06-.02.6-.03,1.15-.03,1.67v1.01c.3-.43.67-.65,1.1-.65.23,0,.44.06.62.19.24.17.37.43.37.79v.77s0,.45,0,.45c0,.41.02.66.07.73.05.08.16.13.33.14.04,0,.05.03.05.07s-.02.06-.05.06c-.34-.01-.53-.02-.57-.02-.02,0-.21,0-.58.02-.04,0-.05-.02-.05-.06s.02-.06.05-.07c.16-.02.27-.06.32-.13.04-.06.06-.15.07-.28,0-.06,0-.21,0-.46v-1.08c0-.16-.02-.3-.06-.41-.09-.28-.33-.41-.71-.41-.32,0-.59.15-.8.45-.1.15-.15.33-.15.55v.91c0,.43.02.67.05.73.04.07.16.11.37.14.04,0,.06.03.06.07s-.02.06-.05.06c-.32-.01-.51-.02-.58-.02-.02,0-.22,0-.59.02-.04,0-.05-.02-.05-.06s.02-.06.05-.07c.18-.02.29-.06.34-.13.04-.08.06-.33.06-.74Z"/>
      <path class="cls-2" d="M120.18,63.03c0-.31-.01-.52-.04-.63-.02-.1-.09-.14-.2-.14-.02,0-.04,0-.07,0l-.17.02h-.04s-.05-.02-.06-.07v-.02s.03-.05.09-.07c.21-.05.47-.15.78-.28.05,0,.08.02.08.06-.02.46-.03.87-.03,1.23v.86c0,.43.02.68.05.75.04.08.17.12.38.14.04,0,.05.03.05.07s-.02.06-.05.06c-.36-.01-.54-.02-.56-.02-.07,0-.29,0-.64.02-.04,0-.05-.02-.05-.06s.02-.06.05-.07c.2-.02.32-.07.37-.13.05-.08.08-.33.08-.76v-.97ZM120.3,59.92c.1,0,.18.03.24.1.05.06.08.13.08.22,0,.09-.03.17-.1.23-.06.05-.13.08-.21.08-.09,0-.17-.04-.23-.11-.05-.06-.08-.13-.08-.21,0-.1.04-.17.11-.24.06-.05.13-.08.21-.08Z"/>
      <path class="cls-2" d="M123.42,61.81c.28,0,.53.05.76.15.16.07.24.17.24.3,0,.09-.02.17-.06.23-.04.05-.08.08-.13.08-.08,0-.19-.1-.32-.29-.07-.1-.15-.17-.23-.21-.09-.04-.2-.07-.34-.07-.3,0-.55.16-.74.48-.16.27-.24.6-.24.97,0,.46.13.82.38,1.08.2.21.42.31.67.31s.47-.05.62-.15c.13-.08.25-.2.37-.37.02-.03.03-.04.05-.04.02,0,.04,0,.07.02.03.02.04.04.04.06,0,0,0,.02,0,.04-.28.48-.68.72-1.19.72-.44,0-.8-.18-1.07-.53-.24-.3-.36-.67-.36-1.11,0-.51.15-.92.46-1.25.28-.29.61-.43,1-.43Z"/>
      <path class="cls-2" d="M130.32,60c.96,0,1.68.28,2.15.84.36.43.54.98.54,1.64,0,.78-.24,1.4-.71,1.86-.48.47-1.16.7-2.03.7-.03,0-.28,0-.73-.02-.02,0-.14,0-.36-.01-.12,0-.22,0-.3,0-.18,0-.43,0-.73.03-.04,0-.06-.02-.06-.07s.02-.07.06-.08c.26-.02.42-.09.49-.2.07-.12.11-.43.11-.94v-2.47c0-.39,0-.62,0-.68,0-.09-.03-.17-.07-.23-.05-.1-.23-.16-.55-.19-.04,0-.06-.03-.06-.08,0-.05.02-.08.07-.08.32.02.57.03.72.03.18,0,.39,0,.65-.02.31-.01.58-.02.82-.02ZM129.13,61.27v2.47c0,.3,0,.49.01.57.01.13.05.24.11.31.07.09.21.15.43.18.11.01.3.02.57.02.81,0,1.42-.27,1.83-.8.31-.41.46-.91.46-1.52,0-.71-.22-1.27-.66-1.7-.4-.38-.93-.58-1.58-.58-.36,0-.62.01-.76.03-.16.02-.26.07-.3.13-.05.07-.08.19-.1.36,0,.09-.01.27-.01.52Z"/>
      <path class="cls-2" d="M134.52,63.17v.3c-.01.45.11.81.37,1.07.2.21.44.31.71.31.25,0,.46-.05.62-.14.13-.08.26-.2.38-.37.02-.04.05-.05.07-.05.02,0,.03,0,.05.02.03.02.05.04.05.06,0,.02,0,.04-.02.06-.26.47-.66.71-1.2.71-.46,0-.82-.17-1.1-.52-.24-.3-.36-.67-.36-1.12,0-.51.15-.93.44-1.26.26-.29.59-.44.98-.44s.73.16.96.49c.17.23.26.48.27.75,0,.05-.01.08-.03.11-.02.02-.06.03-.11.03-.46-.01-.93-.02-1.38-.02-.26,0-.5,0-.71,0ZM134.57,62.95c.22,0,.44,0,.65,0,.37,0,.71,0,1.03-.03.05,0,.07-.03.07-.09v-.02c-.04-.24-.13-.44-.26-.58-.14-.15-.31-.23-.52-.23-.25,0-.46.1-.63.29-.15.16-.26.38-.33.66Z"/>
      <path class="cls-2" d="M139.59,61.89c0,.12.03.37.07.76,0,.04-.02.06-.06.06,0,0-.02,0-.02,0-.03,0-.04-.02-.05-.05-.06-.21-.16-.37-.3-.49-.14-.12-.3-.18-.5-.18s-.33.06-.44.18c-.09.1-.13.21-.13.34,0,.18.05.31.16.4.08.07.26.16.54.28l.23.1c.27.11.46.24.57.38.12.14.18.31.18.51,0,.28-.1.51-.29.69-.2.18-.48.28-.83.28-.28,0-.56-.07-.85-.2-.06-.21-.12-.45-.15-.72,0-.03.02-.04.06-.05.01,0,.02,0,.03,0,.02,0,.04.01.05.04.09.23.22.42.4.56.16.13.34.19.52.19.22,0,.39-.07.52-.22.1-.12.16-.26.16-.43,0-.18-.05-.32-.15-.42-.08-.08-.22-.16-.42-.25l-.24-.11c-.32-.14-.54-.27-.64-.37-.13-.13-.2-.31-.2-.53,0-.23.09-.43.26-.59.17-.16.39-.23.66-.23.16,0,.3.02.44.06.08.02.17.03.28.03.05,0,.1,0,.14,0Z"/>
      <path class="cls-2" d="M141.38,63.03c0-.31-.01-.52-.04-.63-.02-.1-.09-.14-.2-.14-.02,0-.04,0-.07,0l-.17.02h-.04s-.05-.02-.06-.07v-.02s.03-.05.09-.07c.21-.05.47-.15.78-.28.05,0,.08.02.08.06-.02.46-.03.87-.03,1.23v.86c0,.43.02.68.05.75.04.08.17.12.38.14.04,0,.05.03.05.07s-.02.06-.05.06c-.36-.01-.54-.02-.56-.02-.07,0-.29,0-.64.02-.04,0-.05-.02-.05-.06s.02-.06.05-.07c.2-.02.32-.07.37-.13.05-.08.08-.33.08-.76v-.97ZM141.51,59.92c.1,0,.18.03.24.1.05.06.08.13.08.22,0,.09-.03.17-.1.23-.06.05-.13.08-.21.08-.09,0-.17-.04-.23-.11-.05-.06-.08-.13-.08-.21,0-.1.04-.17.11-.24.06-.05.13-.08.21-.08Z"/>
      <path class="cls-2" d="M143.7,64.92c-.14-.04-.24-.1-.29-.18-.05-.07-.08-.16-.08-.27,0-.22.19-.44.57-.64-.47-.2-.71-.52-.71-.95,0-.31.13-.57.38-.78.23-.19.5-.28.81-.28.18,0,.37.05.57.16.35,0,.69-.02,1.03-.05.03,0,.04.01.04.03,0,0,0,.01,0,.02l-.07.19s-.04.04-.07.04c-.16,0-.38-.01-.67-.01.18.17.27.38.27.63,0,.33-.11.6-.33.8-.21.18-.48.27-.83.27-.05,0-.11,0-.16-.02-.31.15-.47.32-.47.52,0,.16.19.24.58.24h.68s.06-.02.07-.02c.45,0,.75.12.9.35.08.12.12.29.12.51,0,.35-.13.63-.39.85-.29.24-.71.36-1.27.36-.43,0-.77-.11-1.02-.33-.2-.17-.3-.38-.3-.61,0-.36.21-.64.64-.84ZM143.95,64.99s-.12.05-.19.11c-.21.13-.31.32-.31.56,0,.27.12.49.35.64.19.12.42.19.71.19.4,0,.7-.1.92-.29.18-.16.27-.38.27-.63,0-.37-.24-.55-.71-.55h-.58c-.14,0-.29,0-.46-.02ZM144.34,62.02c-.24,0-.43.09-.57.27-.12.15-.18.34-.18.56,0,.28.08.5.24.66.14.14.31.21.53.21.23,0,.42-.09.56-.27.12-.16.18-.35.18-.6,0-.26-.08-.47-.23-.62-.14-.13-.31-.2-.52-.2Z"/>
      <path class="cls-2" d="M147.71,62.47c.3-.43.67-.65,1.1-.65.23,0,.44.06.62.19.24.17.37.43.37.79v.77s0,.45,0,.45c0,.41.02.66.07.73.05.08.16.13.33.14.04,0,.05.03.05.07s-.02.06-.05.06c-.34-.01-.53-.02-.57-.02-.04,0-.24,0-.61.02-.04,0-.05-.02-.05-.06s.02-.06.05-.07c.18-.02.3-.06.35-.13.04-.06.07-.16.07-.29,0-.06,0-.21,0-.45v-1.08c0-.16-.02-.3-.06-.41-.09-.28-.33-.41-.71-.41-.32,0-.59.15-.8.45-.1.15-.15.33-.15.55v.91c0,.43.02.67.05.73.04.07.16.11.38.14.04,0,.05.03.05.07s-.02.06-.05.06c-.31-.01-.51-.02-.59-.02-.03,0-.23,0-.59.02-.04,0-.05-.02-.05-.06s.02-.06.05-.07c.19-.02.31-.06.35-.13.04-.08.06-.33.06-.74v-.99c0-.31-.01-.52-.03-.62-.03-.1-.09-.16-.2-.16h-.04l-.17.02h-.04s-.05-.02-.06-.07v-.02s.03-.05.08-.07c.23-.06.48-.16.75-.29.04,0,.07.02.07.07,0,.22-.01.4-.01.56Z"/>
    </g>
    <g>
      <path class="cls-2" d="M25.32,48.16c-.61,0-1.14-.13-1.77-.51-.2-.13-.3-.18-.44-.18-.29,0-.55.27-.87.69h-.1v-2.91h.12l.16.48c.33.99,1.26,2.26,2.9,2.26,1.09,0,1.95-.51,1.95-1.66,0-2.57-4.76-2.07-4.76-4.97,0-1.38,1.14-2.3,2.54-2.3.53,0,1,.16,1.43.4.18.1.3.18.45.18.22,0,.42-.14.77-.58h.1v2.52h-.12l-.14-.44c-.39-1.2-1.43-1.91-2.46-1.91s-1.61.53-1.61,1.38c0,2.63,4.82,2.12,4.82,5.16,0,1.43-1.27,2.39-2.96,2.39Z"/>
      <path class="cls-2" d="M35.63,47.99v-.9c-.3.49-.82,1.04-1.83,1.04-1.22,0-2.13-.6-2.13-1.66s.81-1.61,2.38-1.61c.64,0,1.05.09,1.56.31v-1.61c0-.88-.48-1.39-1.43-1.39-.69,0-.94.13-.94.31,0,.17.25.33.25.7s-.3.65-.65.65c-.42,0-.69-.27-.69-.65,0-.65.72-1.18,2.02-1.18s2.52.64,2.52,2.04v2.05c0,1.69.1,1.7.59,1.73h.26v.17h-1.9ZM34.15,47.86c.57,0,1.17-.42,1.46-1v-1.52c-.44-.2-.83-.31-1.37-.31-.65,0-1.37.27-1.37,1.51,0,1.05.61,1.33,1.27,1.33Z"/>
      <path class="cls-2" d="M44.11,47.99c-.08-.17-.18-.4-.36-.73s-.56-.94-.73-1.21c-.56-.91-.75-1.01-1.14-1.01h-.13v1.05c0,1.69.1,1.7.59,1.73h.26v.17h-2.77v-.16h.26c.48-.04.59-.05.59-1.74v-4.97c0-1.69-.1-1.7-.59-1.73h-.26v-.17h1.92v5.66h.1c.45,0,.86-.43,1.34-.96l.16-.18c.56-.61.77-1.38.25-1.42h-.18v-.17h2.21v.16h-.18c-.4.04-.77.25-1.96,1.55l-.14.16c-.17.17-.38.4-.55.55.4.17.66.55,1.22,1.38.27.4.62.92.74,1.08.38.51.66.78.94.81h.16v.17h-1.73Z"/>
      <path class="cls-2" d="M48.18,47.99v-.16h.26c.48-.04.58-.05.58-1.74v-2.04c0-1.69-.1-1.7-.58-1.73h-.26v-.17h1.92v3.94c0,1.69.1,1.7.58,1.73h.26v.17h-2.77ZM49.54,40.52c-.34,0-.61-.26-.61-.66s.27-.66.61-.66.62.25.62.66-.27.66-.62.66Z"/>
      <path class="cls-2" d="M57.52,47.99v-.16h.26c.48-.04.58-.05.58-1.74v-1.91c0-1.27-.56-1.9-1.44-1.9-.78,0-1.29.42-1.61,1v2.81c0,1.69.1,1.7.59,1.73h.26v.17h-2.77v-.16h.26c.48-.04.59-.05.59-1.74v-2.04c0-1.69-.1-1.7-.59-1.73h-.26v-.17h1.9v.9c.31-.49.82-1.04,1.85-1.04,1.22,0,2.31.66,2.31,2.17v1.91c0,1.69.1,1.7.58,1.73h.26v.17h-2.77Z"/>
      <path class="cls-2" d="M65.67,48.16c-1.94,0-2.95-1.51-2.95-3.07,0-2.15,1.3-3.09,2.76-3.09,1.87,0,2.61,1.16,2.61,2.73h-4.12v.26c0,1.24.22,2.9,1.96,2.9,1.04,0,1.73-.48,1.96-1.47l.18.04c-.25,1.09-1.07,1.7-2.4,1.7ZM65.48,42.17c-1.22,0-1.5,1.01-1.51,2.41h2.9c0-1.17-.21-2.41-1.39-2.41Z"/>
      <path class="cls-2" d="M78.76,47.99v-.16h.27c.64-.04.75-.2.75-1.98v-2.07l-1.46-2.29c-1.05-1.66-1.33-2.08-1.86-2.11h-.23v-.17h3.21v.16h-.27c-.75.05-.49.55.42,2.05l1.29,2.12.96-1.46c.46-.68.83-1.4.83-1.96,0-.38-.18-.72-.69-.74h-.27v-.17h2.86v.16h-.27c-.48.04-.75.46-2.24,2.72l-1.09,1.65v2.11c0,1.78.12,1.94.75,1.96h.27v.17h-3.24Z"/>
      <path class="cls-2" d="M91.06,47.99v-.9c-.3.49-.82,1.04-1.83,1.04-1.22,0-2.13-.6-2.13-1.66s.81-1.61,2.38-1.61c.64,0,1.05.09,1.56.31v-1.61c0-.88-.48-1.39-1.43-1.39-.69,0-.94.13-.94.31,0,.17.25.33.25.7s-.3.65-.65.65c-.42,0-.69-.27-.69-.65,0-.65.72-1.18,2.02-1.18s2.52.64,2.52,2.04v2.05c0,1.69.1,1.7.58,1.73h.26v.17h-1.9ZM89.58,47.86c.57,0,1.17-.42,1.46-1v-1.52c-.44-.2-.83-.31-1.36-.31-.65,0-1.37.27-1.37,1.51,0,1.05.61,1.33,1.27,1.33Z"/>
      <path class="cls-2" d="M103.3,47.99v-.16h.26c.48-.04.59-.05.59-1.74v-1.91c0-1.33-.56-1.91-1.38-1.91s-1.34.53-1.65,1.18c.05.22.09.44.09.74v1.9c0,1.69.1,1.7.58,1.73h.26v.17h-2.77v-.16h.26c.48-.04.58-.05.58-1.74v-1.91c0-1.33-.56-1.91-1.38-1.91-.75,0-1.25.43-1.57,1.01v2.81c0,1.69.1,1.7.59,1.73h.26v.17h-2.77v-.16h.26c.48-.04.59-.05.59-1.74v-2.04c0-1.69-.1-1.7-.59-1.73h-.26v-.17h1.9v.9c.3-.49.85-1.05,1.81-1.05s1.77.44,2.09,1.26c.35-.72,1-1.26,1.92-1.26,1.18,0,2.25.65,2.25,2.2v1.9c0,1.69.1,1.7.59,1.73h.26v.17h-2.77Z"/>
      <path class="cls-2" d="M112.69,47.99v-.9c-.3.49-.82,1.04-1.83,1.04-1.22,0-2.13-.6-2.13-1.66s.81-1.61,2.38-1.61c.64,0,1.05.09,1.56.31v-1.61c0-.88-.48-1.39-1.43-1.39-.69,0-.94.13-.94.31,0,.17.25.33.25.7s-.3.65-.65.65c-.42,0-.69-.27-.69-.65,0-.65.72-1.18,2.02-1.18s2.52.64,2.52,2.04v2.05c0,1.69.1,1.7.59,1.73h.26v.17h-1.9ZM111.21,47.86c.57,0,1.17-.42,1.46-1v-1.52c-.44-.2-.83-.31-1.37-.31-.65,0-1.37.27-1.37,1.51,0,1.05.61,1.33,1.27,1.33Z"/>
      <path class="cls-2" d="M124.93,47.99v-.16h.26c.48-.04.58-.05.58-1.74v-1.91c0-1.33-.56-1.91-1.38-1.91s-1.34.53-1.65,1.18c.05.22.09.44.09.74v1.9c0,1.69.1,1.7.58,1.73h.26v.17h-2.77v-.16h.26c.48-.04.58-.05.58-1.74v-1.91c0-1.33-.56-1.91-1.38-1.91-.75,0-1.25.43-1.57,1.01v2.81c0,1.69.1,1.7.58,1.73h.26v.17h-2.77v-.16h.26c.48-.04.58-.05.58-1.74v-2.04c0-1.69-.1-1.7-.58-1.73h-.26v-.17h1.9v.9c.3-.49.85-1.05,1.81-1.05s1.77.44,2.09,1.26c.35-.72,1-1.26,1.92-1.26,1.18,0,2.25.65,2.25,2.2v1.9c0,1.69.1,1.7.58,1.73h.26v.17h-2.77Z"/>
      <path class="cls-2" d="M133.07,48.16c-1.86,0-2.94-1.48-2.94-3.09s1.08-3.07,2.94-3.07,2.95,1.47,2.95,3.08-1.08,3.08-2.95,3.08ZM133.07,42.17c-1.37,0-1.68,1.31-1.68,2.91s.31,2.91,1.68,2.91,1.68-1.3,1.68-2.9-.31-2.93-1.68-2.93Z"/>
      <path class="cls-2" d="M142.27,46.72c0,.81-.22,1.43-1.2,1.43s-1.56-.66-1.56-1.99v-3.83h-.92v-.17h.92v-2.09h1.08v2.09h1.5v.17h-1.5v3.83c0,1.16.17,1.73.74,1.73.52,0,.78-.38.78-1.17h.16Z"/>
      <path class="cls-2" d="M147.77,48.16c-1.86,0-2.94-1.48-2.94-3.09s1.08-3.07,2.94-3.07,2.95,1.47,2.95,3.08-1.08,3.08-2.95,3.08ZM147.77,42.17c-1.37,0-1.68,1.31-1.68,2.91s.31,2.91,1.68,2.91,1.68-1.3,1.68-2.9-.31-2.93-1.68-2.93Z"/>
    </g>
    <line class="cls-3" x1="71.76" y1="62.97" x2="49.43" y2="62.97"/>
  </g>
</svg>