<?xml version="1.0" encoding="UTF-8"?>
<svg xmlns="http://www.w3.org/2000/svg" xmlns:xlink="http://www.w3.org/1999/xlink" viewBox="0 0 257.95 155.91">
  <defs>
    <style>
      .cls-1 {
        fill: #1e2a43;
      }

      .cls-2 {
        fill: #f6f2ee;
      }
    </style>
  </defs>
  <g id="_レイヤー_2" data-name="レイヤー 2">
    <rect class="cls-2" x=".3" y="-.17" width="257.95" height="155.91"/>
  </g>
  <g id="_レイヤー_3" data-name="レイヤー 3">
    <polygon class="cls-1" points="257.95 0 139.18 155.91 257.95 155.91 257.95 0"/>
    <g>
      <path class="cls-1" d="M41.25,79.56v-.06h.1c.19-.01.23-.02.23-.67v-.74c0-.51-.22-.74-.52-.74-.28,0-.48.17-.6.39v1.08c0,.65.04.66.22.67h.1v.07h-1.07v-.06h.1c.18-.01.22-.02.22-.67v-1.91c0-.65-.04-.66-.22-.67h-.1v-.07h.74v1.46c.12-.19.3-.4.68-.4.44,0,.85.26.85.84v.74c0,.65.04.66.23.67h.1v.07h-1.07Z"/>
      <path class="cls-1" d="M43.91,79.07c0,.31-.08.55-.46.55s-.6-.25-.6-.77v-1.48h-.36v-.06h.36v-.81h.42v.81h.58v.06h-.58v1.48c0,.45.07.67.29.67.2,0,.3-.15.3-.45h.06Z"/>
      <path class="cls-1" d="M45.45,79.07c0,.31-.08.55-.46.55s-.6-.25-.6-.77v-1.48h-.36v-.06h.36v-.81h.42v.81h.58v.06h-.58v1.48c0,.45.07.67.29.67.2,0,.3-.15.3-.45h.06Z"/>
      <path class="cls-1" d="M46.86,79.62c-.12,0-.28-.01-.44-.06v.31c0,.65.04.66.28.67h.15v.07h-1.17v-.06h.1c.18-.01.22-.02.22-.67v-1.83c0-.65-.04-.66-.22-.67h-.1v-.06h1.15c.63,0,1.25.33,1.25,1.15,0,.64-.46,1.16-1.23,1.16ZM46.84,77.38h-.42v2.11c.17.04.29.07.44.07.52,0,.74-.41.74-1.1,0-.55-.22-1.08-.76-1.08Z"/>
      <path class="cls-1" d="M49.32,79.63c-.17,0-.3-.04-.46-.12-.05-.02-.08-.04-.12-.04-.07,0-.13.05-.21.17h-.05v-.76h.06l.04.12c.08.26.29.58.74.58.29,0,.51-.13.51-.42,0-.61-1.24-.42-1.24-1.28,0-.36.3-.61.68-.61.15,0,.25.04.4.11.03.01.07.04.1.04.06,0,.11-.05.17-.15h.04v.66h-.06l-.03-.11c-.1-.3-.34-.48-.62-.48s-.42.12-.42.34c0,.63,1.25.44,1.25,1.33,0,.38-.33.64-.79.64Z"/>
      <path class="cls-1" d="M50.99,77.86c-.15,0-.25-.11-.25-.28,0-.16.11-.27.25-.27s.26.11.26.27-.11.28-.25.28ZM50.99,79.56c-.15,0-.25-.11-.25-.28,0-.16.11-.27.25-.27s.26.11.26.27-.11.28-.25.28Z"/>
      <path class="cls-1" d="M51.82,79.59l1.38-3.47.09.04-1.38,3.47-.08-.04Z"/>
      <path class="cls-1" d="M53,79.59l1.38-3.47.08.04-1.38,3.47-.09-.04Z"/>
      <path class="cls-1" d="M55.2,79.63c-.17,0-.3-.04-.47-.12-.05-.02-.08-.04-.12-.04-.07,0-.13.05-.21.17h-.05v-.76h.06l.04.12c.08.26.3.58.74.58.29,0,.5-.13.5-.42,0-.61-1.24-.42-1.24-1.28,0-.36.3-.61.68-.61.14,0,.25.04.39.11.03.01.07.04.1.04.05,0,.11-.05.17-.15h.04v.66h-.05l-.04-.11c-.09-.3-.34-.48-.62-.48s-.42.12-.42.34c0,.63,1.25.44,1.25,1.33,0,.38-.34.64-.79.64Z"/>
      <path class="cls-1" d="M57.94,79.56v-.35c-.12.19-.32.4-.71.4-.47,0-.82-.23-.82-.64s.31-.62.92-.62c.25,0,.41.03.6.12v-.62c0-.34-.19-.54-.55-.54-.27,0-.36.05-.36.12,0,.06.09.12.09.27s-.11.25-.25.25c-.16,0-.26-.11-.26-.25,0-.25.27-.46.78-.46s.97.25.97.79v.79c0,.65.04.66.23.67h.1v.07h-.73ZM57.37,79.51c.22,0,.45-.16.56-.38v-.59c-.17-.08-.32-.12-.53-.12-.25,0-.53.11-.53.58,0,.41.23.51.49.51Z"/>
      <path class="cls-1" d="M60.5,79.56c-.03-.07-.07-.16-.14-.28s-.21-.36-.28-.47c-.21-.35-.29-.39-.44-.39h-.05v.41c0,.65.04.66.22.67h.1v.07h-1.07v-.06h.1c.18-.01.22-.02.22-.67v-1.91c0-.65-.04-.66-.22-.67h-.1v-.07h.74v2.18h.04c.17,0,.33-.17.52-.37l.06-.07c.22-.24.3-.53.1-.55h-.07v-.06h.85v.06h-.07c-.16.01-.29.09-.76.6l-.05.06c-.07.07-.15.16-.21.21.16.06.25.21.47.53.1.16.24.36.29.42.14.2.25.3.36.31h.06v.07h-.67Z"/>
      <path class="cls-1" d="M61.31,79.56v-.06h.1c.19-.01.23-.02.23-.67v-.79c0-.65-.04-.66-.23-.67h-.1v-.06h.74v1.52c0,.65.04.66.23.67h.1v.07h-1.07ZM61.84,76.68c-.13,0-.24-.1-.24-.26s.11-.25.24-.25.24.09.24.25-.11.26-.24.26Z"/>
      <path class="cls-1" d="M64.21,79.56v-.06h.1c.19-.01.23-.02.23-.67v-.74c0-.49-.22-.73-.56-.73-.3,0-.5.16-.62.38v1.08c0,.65.04.66.23.67h.1v.07h-1.07v-.06h.1c.19-.01.23-.02.23-.67v-.79c0-.65-.04-.66-.23-.67h-.1v-.06h.73v.34c.12-.19.32-.4.71-.4.47,0,.89.26.89.84v.74c0,.65.04.66.23.67h.1v.07h-1.07Z"/>
      <path class="cls-1" d="M66.64,79.63c-.75,0-1.14-.58-1.14-1.18,0-.83.5-1.19,1.06-1.19.72,0,1.01.45,1.01,1.05h-1.59v.1c0,.48.08,1.12.76,1.12.4,0,.67-.19.76-.57h.07c-.1.43-.41.67-.93.67ZM66.57,77.32c-.47,0-.58.39-.58.93h1.12c0-.45-.08-.93-.54-.93Z"/>
      <path class="cls-1" d="M68.42,80.6v-.06h.05c.28-.03.38-.18.38-.79v-.19l-.73-1.66c-.18-.43-.26-.52-.38-.54h-.04v-.06h.98v.06h-.09c-.21.01-.2.12-.02.53l.49,1.14.37-.93c.14-.34.15-.72-.05-.73h-.08v-.06h.71v.06h-.04c-.14.03-.24.17-.46.73l-.59,1.47v.19c0,.61.09.75.37.78h.05v.07h-.92Z"/>
      <path class="cls-1" d="M71.58,79.56v-.35c-.12.19-.32.4-.71.4-.47,0-.82-.23-.82-.64s.31-.62.92-.62c.25,0,.41.03.6.12v-.62c0-.34-.18-.54-.55-.54-.27,0-.36.05-.36.12,0,.06.09.12.09.27s-.12.25-.25.25c-.16,0-.27-.11-.27-.25,0-.25.28-.46.78-.46s.97.25.97.79v.79c0,.65.04.66.22.67h.1v.07h-.73ZM71.01,79.51c.22,0,.45-.16.56-.38v-.59c-.17-.08-.32-.12-.53-.12-.25,0-.53.11-.53.58,0,.41.24.51.49.51Z"/>
      <path class="cls-1" d="M75.59,79.56v-.06h.1c.18-.01.22-.02.22-.67v-.74c0-.51-.21-.74-.53-.74s-.52.21-.64.46c.02.08.04.17.04.29v.73c0,.65.04.66.23.67h.1v.07h-1.07v-.06h.1c.19-.01.23-.02.23-.67v-.74c0-.51-.22-.74-.53-.74-.29,0-.48.17-.61.39v1.08c0,.65.04.66.23.67h.1v.07h-1.07v-.06h.1c.19-.01.23-.02.23-.67v-.79c0-.65-.04-.66-.23-.67h-.1v-.06h.73v.34c.12-.19.33-.41.7-.41s.68.17.81.49c.13-.28.38-.49.74-.49.46,0,.87.25.87.85v.73c0,.65.04.66.22.67h.1v.07h-1.07Z"/>
      <path class="cls-1" d="M78.5,79.56v-.35c-.12.19-.32.4-.71.4-.47,0-.82-.23-.82-.64s.31-.62.92-.62c.25,0,.41.03.6.12v-.62c0-.34-.18-.54-.55-.54-.27,0-.36.05-.36.12,0,.06.09.12.09.27s-.12.25-.25.25c-.16,0-.27-.11-.27-.25,0-.25.28-.46.78-.46s.97.25.97.79v.79c0,.65.04.66.22.67h.1v.07h-.73ZM77.93,79.51c.22,0,.45-.16.56-.38v-.59c-.17-.08-.32-.12-.53-.12-.25,0-.53.11-.53.58,0,.41.24.51.49.51Z"/>
      <path class="cls-1" d="M82.51,79.56v-.06h.1c.18-.01.22-.02.22-.67v-.74c0-.51-.21-.74-.53-.74s-.52.21-.64.46c.02.08.04.17.04.29v.73c0,.65.04.66.23.67h.1v.07h-1.07v-.06h.1c.19-.01.23-.02.23-.67v-.74c0-.51-.22-.74-.53-.74-.29,0-.48.17-.61.39v1.08c0,.65.04.66.23.67h.1v.07h-1.07v-.06h.1c.19-.01.23-.02.23-.67v-.79c0-.65-.04-.66-.23-.67h-.1v-.06h.73v.34c.12-.19.33-.41.7-.41s.68.17.81.49c.13-.28.38-.49.74-.49.46,0,.87.25.87.85v.73c0,.65.04.66.22.67h.1v.07h-1.07Z"/>
      <path class="cls-1" d="M84.93,79.63c-.71,0-1.13-.57-1.13-1.19s.42-1.18,1.13-1.18,1.14.57,1.14,1.19-.42,1.19-1.14,1.19ZM84.93,77.32c-.53,0-.65.5-.65,1.12s.12,1.12.65,1.12.65-.5.65-1.12-.12-1.13-.65-1.13Z"/>
      <path class="cls-1" d="M87.67,79.07c0,.31-.08.55-.46.55s-.6-.25-.6-.77v-1.48h-.36v-.06h.36v-.81h.42v.81h.58v.06h-.58v1.48c0,.45.07.67.29.67.2,0,.3-.15.3-.45h.06Z"/>
      <path class="cls-1" d="M89.01,79.63c-.71,0-1.13-.57-1.13-1.19s.42-1.18,1.13-1.18,1.14.57,1.14,1.19-.42,1.19-1.14,1.19ZM89.01,77.32c-.53,0-.65.5-.65,1.12s.12,1.12.65,1.12.65-.5.65-1.12-.12-1.13-.65-1.13Z"/>
      <path class="cls-1" d="M90.77,78.54v-.29h1.05v.29h-1.05Z"/>
      <path class="cls-1" d="M93.67,79.56v-.06h.1c.19-.01.23-.02.23-.67v-.74c0-.51-.22-.74-.52-.74-.28,0-.48.17-.6.39v1.08c0,.65.04.66.22.67h.1v.07h-1.07v-.06h.1c.18-.01.22-.02.22-.67v-1.91c0-.65-.04-.66-.22-.67h-.1v-.07h.74v1.46c.12-.19.3-.4.68-.4.44,0,.85.26.85.84v.74c0,.65.04.66.23.67h.1v.07h-1.07Z"/>
      <path class="cls-1" d="M96.58,79.56v-.35c-.12.19-.32.4-.71.4-.47,0-.82-.23-.82-.64s.31-.62.92-.62c.25,0,.41.03.6.12v-.62c0-.34-.18-.54-.55-.54-.27,0-.36.05-.36.12,0,.06.09.12.09.27s-.12.25-.25.25c-.16,0-.27-.11-.27-.25,0-.25.28-.46.78-.46s.97.25.97.79v.79c0,.65.04.66.22.67h.1v.07h-.73ZM96.01,79.51c.22,0,.45-.16.56-.38v-.59c-.17-.08-.32-.12-.53-.12-.25,0-.53.11-.53.58,0,.41.24.51.49.51Z"/>
      <path class="cls-1" d="M98.43,79.63c-.17,0-.3-.04-.46-.12-.05-.02-.08-.04-.12-.04-.07,0-.13.05-.21.17h-.05v-.76h.06l.04.12c.08.26.29.58.74.58.29,0,.51-.13.51-.42,0-.61-1.24-.42-1.24-1.28,0-.36.3-.61.68-.61.15,0,.25.04.4.11.03.01.07.04.1.04.06,0,.11-.05.17-.15h.04v.66h-.06l-.03-.11c-.1-.3-.34-.48-.62-.48s-.42.12-.42.34c0,.63,1.25.44,1.25,1.33,0,.38-.33.64-.79.64Z"/>
      <path class="cls-1" d="M101.13,79.56v-.06h.1c.19-.01.23-.02.23-.67v-.74c0-.51-.22-.74-.52-.74-.28,0-.48.17-.6.39v1.08c0,.65.04.66.22.67h.1v.07h-1.07v-.06h.1c.18-.01.22-.02.22-.67v-1.91c0-.65-.04-.66-.22-.67h-.1v-.07h.74v1.46c.12-.19.3-.4.68-.4.44,0,.85.26.85.84v.74c0,.65.04.66.23.67h.1v.07h-1.07Z"/>
      <path class="cls-1" d="M102.98,79.56c-.15,0-.25-.11-.25-.28,0-.16.1-.27.25-.27s.25.11.25.27-.1.28-.25.28Z"/>
      <path class="cls-1" d="M104,80.09c0-.16.11-.26.26-.26.13,0,.25.1.25.26s-.09.18-.09.29c0,.08.13.17.45.17.6,0,.68-.35.68-.94v-.04c-.16.04-.31.06-.44.06-.77,0-1.23-.53-1.23-1.16,0-.82.63-1.15,1.25-1.15h1.15v.06h-.1c-.19.01-.23.02-.23.67v1.56c0,.64-.33,1-1.09,1-.54,0-.87-.27-.87-.51ZM105.54,77.38h-.42c-.54,0-.76.53-.76,1.08,0,.69.23,1.1.74,1.1.15,0,.27-.02.44-.07v-2.11Z"/>
      <path class="cls-1" d="M106.52,79.56v-.06h.1c.18-.01.22-.02.22-.67v-.79c0-.65-.04-.66-.22-.67h-.1v-.06h.74v1.52c0,.65.04.66.22.67h.1v.07h-1.07ZM107.04,76.68c-.13,0-.23-.1-.23-.26s.1-.25.23-.25.24.09.24.25-.1.26-.24.26Z"/>
      <path class="cls-1" d="M109.24,79.07c0,.31-.08.55-.46.55s-.6-.25-.6-.77v-1.48h-.36v-.06h.36v-.81h.42v.81h.58v.06h-.58v1.48c0,.45.07.67.29.67.2,0,.3-.15.3-.45h.06Z"/>
      <path class="cls-1" d="M111,79.56v-.06h.1c.19-.01.23-.02.23-.67v-.74c0-.51-.22-.74-.52-.74-.28,0-.48.17-.6.39v1.08c0,.65.04.66.22.67h.1v.07h-1.07v-.06h.1c.18-.01.22-.02.22-.67v-1.91c0-.65-.04-.66-.22-.67h-.1v-.07h.74v1.46c.12-.19.3-.4.68-.4.44,0,.85.26.85.84v.74c0,.65.04.66.23.67h.1v.07h-1.07Z"/>
      <path class="cls-1" d="M114.01,79.56v-.35c-.12.19-.29.41-.66.41-.44,0-.85-.26-.85-.85v-.73c0-.65-.04-.66-.21-.67h-.1v-.06h.73v1.47c0,.51.21.74.51.74s.45-.17.57-.39v-1.08c0-.65-.04-.66-.23-.67h-.1v-.06h.74v1.52c0,.65.04.66.23.67h.1v.07h-.73Z"/>
      <path class="cls-1" d="M116.12,79.56h-1.15v-.06h.1c.18-.01.22-.02.22-.67v-1.91c0-.65-.04-.66-.22-.67h-.1v-.07h.74v1.13c.16-.05.32-.06.44-.06.77,0,1.23.53,1.23,1.16,0,.82-.62,1.15-1.26,1.15ZM116.15,77.32c-.14,0-.27.01-.44.06v2.11h.41c.54,0,.77-.53.77-1.08,0-.69-.22-1.1-.74-1.1Z"/>
      <path class="cls-1" d="M118.27,79.56c-.15,0-.25-.11-.25-.28,0-.16.1-.27.25-.27s.25.11.25.27-.1.28-.25.28Z"/>
      <path class="cls-1" d="M119.12,79.56v-.06h.1c.19-.01.23-.02.23-.67v-.79c0-.65-.04-.66-.23-.67h-.1v-.06h.74v1.52c0,.65.04.66.23.67h.1v.07h-1.07ZM119.64,76.68c-.13,0-.24-.1-.24-.26s.11-.25.24-.25.24.09.24.25-.11.26-.24.26Z"/>
      <path class="cls-1" d="M121.61,79.63c-.71,0-1.13-.57-1.13-1.19s.42-1.18,1.13-1.18,1.14.57,1.14,1.19-.42,1.19-1.14,1.19ZM121.61,77.32c-.53,0-.65.5-.65,1.12s.12,1.12.65,1.12.65-.5.65-1.12-.12-1.13-.65-1.13Z"/>
      <path class="cls-1" d="M122.92,79.59l1.38-3.47.08.04-1.38,3.47-.09-.04Z"/>
      <path class="cls-1" d="M125.37,79.62c-.12,0-.28-.01-.44-.06v.31c0,.65.04.66.28.67h.15v.07h-1.17v-.06h.1c.18-.01.22-.02.22-.67v-1.83c0-.65-.04-.66-.22-.67h-.1v-.06h1.15c.63,0,1.25.33,1.25,1.15,0,.64-.46,1.16-1.23,1.16ZM125.34,77.38h-.42v2.11c.17.04.29.07.44.07.52,0,.74-.41.74-1.1,0-.55-.22-1.08-.76-1.08Z"/>
      <path class="cls-1" d="M128.14,79.63c-.72,0-1.13-.57-1.13-1.19s.42-1.18,1.13-1.18,1.14.57,1.14,1.19-.42,1.19-1.14,1.19ZM128.14,77.32c-.53,0-.65.5-.65,1.12s.12,1.12.65,1.12.65-.5.65-1.12-.12-1.13-.65-1.13Z"/>
      <path class="cls-1" d="M129.57,79.56v-.06h.1c.19-.01.23-.02.23-.67v-.79c0-.65-.04-.66-.23-.67h-.1v-.06h.73v.34c.14-.28.33-.41.56-.41s.44.15.44.39c0,.2-.13.26-.25.26-.13,0-.24-.09-.24-.22,0-.18.14-.2.14-.29,0-.04-.03-.07-.12-.07-.19,0-.37.12-.52.42v1.08c0,.65.04.66.28.67h.15v.07h-1.17Z"/>
      <path class="cls-1" d="M132.81,79.07c0,.31-.08.55-.46.55s-.6-.25-.6-.77v-1.48h-.36v-.06h.36v-.81h.42v.81h.58v.06h-.58v1.48c0,.45.07.67.29.67.2,0,.3-.15.3-.45h.06Z"/>
      <path class="cls-1" d="M133.69,77.38v1.45c0,.65.04.66.28.67h.15v.07h-1.17v-.06h.1c.18-.01.22-.02.22-.67v-1.45h-.36v-.06h.36v-.41c0-.46.29-.79.78-.79.38,0,.61.21.61.46,0,.15-.11.25-.27.25-.13,0-.25-.1-.25-.25s.09-.21.09-.29c0-.05-.07-.11-.19-.11-.29,0-.36.15-.36.54v.59h.58v.06h-.58Z"/>
      <path class="cls-1" d="M135.59,79.63c-.72,0-1.13-.57-1.13-1.19s.42-1.18,1.13-1.18,1.14.57,1.14,1.19-.42,1.19-1.14,1.19ZM135.59,77.32c-.53,0-.65.5-.65,1.12s.12,1.12.65,1.12.65-.5.65-1.12-.12-1.13-.65-1.13Z"/>
      <path class="cls-1" d="M137.02,79.56v-.06h.1c.19-.01.23-.02.23-.67v-1.91c0-.65-.04-.66-.23-.67h-.1v-.07h.74v2.64c0,.65.04.66.23.67h.1v.07h-1.07Z"/>
      <path class="cls-1" d="M138.32,79.56v-.06h.1c.19-.01.23-.02.23-.67v-.79c0-.65-.04-.66-.23-.67h-.1v-.06h.74v1.52c0,.65.04.66.23.67h.1v.07h-1.07ZM138.85,76.68c-.13,0-.24-.1-.24-.26s.11-.25.24-.25.24.09.24.25-.11.26-.24.26Z"/>
      <path class="cls-1" d="M140.81,79.63c-.71,0-1.13-.57-1.13-1.19s.42-1.18,1.13-1.18,1.14.57,1.14,1.19-.42,1.19-1.14,1.19ZM140.81,77.32c-.53,0-.65.5-.65,1.12s.12,1.12.65,1.12.65-.5.65-1.12-.12-1.13-.65-1.13Z"/>
      <path class="cls-1" d="M142.12,79.59l1.38-3.47.08.04-1.38,3.47-.09-.04Z"/>
    </g>
    <g>
      <path class="cls-1" d="M39.8,98.16c0-.7.46-1.33,1.25-1.33s1.25.63,1.25,1.33-.46,1.34-1.25,1.34-1.25-.64-1.25-1.34ZM41.8,98.16c0-.65-.16-1.27-.75-1.27s-.75.62-.75,1.27.15,1.27.75,1.27.75-.62.75-1.27Z"/>
      <path class="cls-1" d="M43.82,100.33c-.55,0-.85-.28-.85-.5,0-.13.1-.23.24-.23.12,0,.23.09.23.23,0,.12-.08.17-.08.25,0,.09.19.18.47.18.69,0,.86-.69.87-1.6-.25.25-.52.35-.8.35-.63,0-1.06-.42-1.06-1.05,0-.68.49-1.15,1.16-1.15.87,0,1.2.75,1.2,1.58,0,.88-.3,1.93-1.36,1.93ZM44.68,98.58v-.29c0-.65-.14-1.4-.71-1.4-.48,0-.65.44-.65,1.04,0,.57.12,1.01.62,1.01.26,0,.5-.1.75-.36Z"/>
      <path class="cls-1" d="M45.7,98.16c0-.7.46-1.33,1.25-1.33s1.25.63,1.25,1.33-.46,1.34-1.25,1.34-1.25-.64-1.25-1.34ZM47.7,98.16c0-.65-.16-1.27-.75-1.27s-.75.62-.75,1.27.15,1.27.75,1.27.75-.62.75-1.27Z"/>
      <path class="cls-1" d="M48.6,98.42v-.29h1.05v.29h-1.05Z"/>
      <path class="cls-1" d="M50.15,98.53c0-.42.28-.8.93-.89-.54-.05-.82-.43-.82-.78,0-.56.51-.87,1.08-.87s1.08.32,1.08.87c0,.34-.2.67-.79.78.65.09.92.47.92.89,0,.61-.55.97-1.21.97s-1.19-.36-1.19-.97ZM52.04,98.59c0-.5-.15-.92-.71-.92-.52,0-.7.42-.7.92s.23.85.7.85.71-.37.71-.85ZM51.94,96.81c0-.49-.15-.75-.59-.75s-.59.26-.59.75c0,.58.12.81.59.81s.59-.22.59-.81Z"/>
      <path class="cls-1" d="M53.04,98.16c0-.7.46-1.33,1.25-1.33s1.25.63,1.25,1.33-.46,1.34-1.25,1.34-1.25-.64-1.25-1.34ZM55.04,98.16c0-.65-.16-1.27-.75-1.27s-.75.62-.75,1.27.15,1.27.75,1.27.75-.62.75-1.27Z"/>
      <path class="cls-1" d="M57.42,100.26v-1.1h-1.45v-.04l1.79-2.3h.09v2.28h.56v.06h-.56v1.1h-.43ZM57.42,97.36l-1.36,1.75h1.36v-1.75Z"/>
      <path class="cls-1" d="M58.89,99.82c0-.14.11-.25.27-.25.13,0,.25.11.25.25s-.09.19-.09.27c0,.08.13.18.46.17.56,0,.77-.39.77-.95,0-.4-.17-.98-.71-.98-.3,0-.48.09-.71.23l-.04-.02v-1.65h.86c.7,0,.73-.06.75-.24v-.1h.08l-.09.72c-.29-.03-.58-.04-.82-.04h-.71v1.24c.21-.12.42-.22.76-.22.66,0,1.15.4,1.15,1.06s-.6,1.02-1.27,1.02c-.62,0-.88-.26-.88-.51Z"/>
      <path class="cls-1" d="M61.26,98.42v-.29h1.05v.29h-1.05Z"/>
      <path class="cls-1" d="M63.52,100.33c-.61,0-.87-.26-.87-.51,0-.14.1-.25.26-.25.14,0,.25.11.25.25s-.1.19-.1.27c0,.08.13.18.45.17.61,0,.8-.38.8-.91,0-.56-.17-.87-.75-.87h-.46v-.06h.46c.55,0,.59-.34.59-.74,0-.43-.18-.8-.63-.8-.32,0-.41.1-.41.18,0,.06.1.13.1.27s-.12.25-.25.25c-.16,0-.27-.11-.27-.25,0-.25.28-.51.83-.51.64,0,1.14.29,1.14.86,0,.41-.34.69-.81.77.58.08.97.36.97.9,0,.66-.58.98-1.3.98Z"/>
      <path class="cls-1" d="M66.55,100.33c-.55,0-.85-.28-.85-.5,0-.13.09-.23.24-.23.12,0,.23.09.23.23,0,.12-.08.17-.08.25,0,.09.18.18.46.18.69,0,.86-.69.87-1.6-.26.25-.52.35-.8.35-.63,0-1.06-.42-1.06-1.05,0-.68.49-1.15,1.16-1.15.87,0,1.2.75,1.2,1.58,0,.88-.3,1.93-1.36,1.93ZM67.42,98.58v-.29c0-.65-.15-1.4-.71-1.4-.48,0-.65.44-.65,1.04,0,.57.12,1.01.62,1.01.27,0,.5-.1.75-.36Z"/>
      <path class="cls-1" d="M68.36,99.43v-.06h.15c.19,0,.23-.02.23-.67v-1.08c0-.65-.04-.66-.23-.67h-.15v-.07h1.19v.06h-.15c-.18,0-.22.02-.22.67v1.08c0,.65.04.66.22.67h.15v.07h-1.19Z"/>
      <path class="cls-1" d="M69.97,98.53c0-.42.28-.8.93-.89-.54-.05-.82-.43-.82-.78,0-.56.52-.87,1.08-.87s1.08.32,1.08.87c0,.34-.2.67-.79.78.65.09.92.47.92.89,0,.61-.55.97-1.21.97s-1.19-.36-1.19-.97ZM71.86,98.59c0-.5-.15-.92-.71-.92-.52,0-.7.42-.7.92s.23.85.7.85.71-.37.71-.85ZM71.76,96.81c0-.49-.16-.75-.6-.75s-.59.26-.59.75c0,.58.12.81.59.81s.6-.22.6-.81Z"/>
    </g>
    <g>
      <path class="cls-1" d="M15.38,99.46v-.06h.11c.23-.01.28-.08.28-.76v-1.74c0-.68-.03-.75-.23-.75h-.08c-.29,0-.58.28-.78.89l-.06.17h-.05v-1.12h3.12v1.12h-.04l-.06-.17c-.2-.61-.49-.89-.78-.89h-.08c-.2,0-.23.07-.23.75v1.74c0,.69.05.75.27.76h.1v.07h-1.48Z"/>
      <path class="cls-1" d="M18.78,99.52c-.9,0-1.33-.57-1.33-1.22,0-.85.58-1.22,1.19-1.22.78,0,1.13.45,1.13,1.1h-1.6v.08c0,.56.08,1.15.71,1.15.41,0,.71-.19.81-.58l.07.02c-.1.42-.46.67-.99.67ZM18.66,97.15c-.39,0-.49.33-.49.97h.94c0-.6-.08-.97-.45-.97Z"/>
      <path class="cls-1" d="M20.12,99.46v-.06h.1c.17,0,.21-.02.21-.67v-1.91c0-.65-.04-.66-.21-.67h-.1v-.07h.97v2.64c0,.65.04.66.21.67h.1v.07h-1.28Z"/>
    </g>
    <g>
      <path class="cls-1" d="M14.58,89.5v-.06h.11c.22-.02.27-.08.27-.76v-1.73c0-.69-.05-.75-.27-.76h-.11v-.07h2.64v1.02h-.04l-.06-.17c-.19-.55-.53-.79-1.03-.79h-.17c-.21,0-.24.08-.24.76v.79h.23c.26,0,.48-.14.59-.5l.04-.11h.04v1.29h-.04l-.04-.11c-.11-.36-.33-.5-.59-.5h-.23v.88c0,.68.03.76.23.76h.28c.54,0,.8-.27,1.03-.94l.06-.17h.04v1.17h-2.74Z"/>
      <path class="cls-1" d="M17.87,88.5v-.33h1.05v.33h-1.05Z"/>
      <path class="cls-1" d="M22.44,89.5v-.06h.09c.17-.02.21-.03.21-.67v-.92c0-.39-.16-.6-.43-.6-.25,0-.43.18-.54.42.03.09.04.18.04.3v.79c0,.65.04.66.21.67h.09v.06h-1.26v-.06h.09c.17-.02.21-.03.21-.67v-.92c0-.39-.16-.6-.42-.6-.23,0-.39.14-.51.35v1.17c0,.65.04.66.21.67h.09v.06h-1.27v-.06h.1c.17,0,.21-.03.21-.67v-.85c0-.65-.04-.66-.21-.67h-.1v-.06h.96v.33c.12-.2.33-.39.71-.39.37,0,.7.16.83.47.12-.28.36-.47.76-.47.48,0,.9.24.9.85v.79c0,.65.04.66.21.67h.1v.06h-1.27Z"/>
      <path class="cls-1" d="M25.58,89.5v-.32c-.11.2-.31.38-.74.38-.49,0-.85-.25-.85-.66,0-.44.35-.66.94-.66.28,0,.45.04.64.12v-.63c0-.35-.16-.54-.49-.54-.22,0-.32.05-.32.13,0,.09.12.15.12.32s-.14.31-.35.31c-.23,0-.37-.14-.37-.31,0-.3.33-.52.93-.52s1.13.24,1.13.82v.82c0,.65.04.66.21.67h.1v.06h-.96ZM25.09,89.43c.19,0,.38-.15.48-.35v-.66c-.14-.07-.27-.11-.44-.11-.23,0-.45.13-.45.6,0,.38.18.52.41.52Z"/>
      <path class="cls-1" d="M26.72,89.5v-.06h.1c.17,0,.21-.03.21-.67v-.85c0-.65-.04-.66-.21-.67h-.1v-.06h.97v1.58c0,.65.04.66.21.67h.1v.06h-1.28ZM27.35,86.75c-.22,0-.37-.13-.37-.33,0-.21.15-.34.37-.34s.38.13.38.33-.15.34-.38.34Z"/>
      <path class="cls-1" d="M28.24,89.5v-.06h.1c.17,0,.21-.03.21-.67v-1.91c0-.65-.04-.66-.21-.67h-.1v-.07h.97v2.64c0,.65.04.66.21.67h.1v.06h-1.28Z"/>
    </g>
    <g>
      <path class="cls-1" d="M16.38,78.17h-.7v.58c0,.69.05.74.43.76h.1v.07h-1.63v-.06h.1c.22-.01.27-.08.27-.76v-1.73c0-.69-.05-.75-.27-.76h-.1v-.07h1.79c.8,0,1.27.37,1.27,1,0,.6-.42.97-1.26.97ZM16.26,76.27h-.34c-.21,0-.24.08-.24.76v1.09h.58c.43,0,.58-.37.58-.92,0-.51-.17-.92-.58-.92Z"/>
      <path class="cls-1" d="M18.97,79.65c-.79,0-1.26-.56-1.26-1.22s.47-1.22,1.26-1.22,1.26.55,1.26,1.22-.47,1.22-1.26,1.22ZM18.97,77.27c-.44,0-.54.43-.54,1.16s.1,1.15.54,1.15.54-.43.54-1.15-.1-1.16-.54-1.16Z"/>
      <path class="cls-1" d="M20.5,79.58v-.06h.1c.17,0,.21-.02.21-.67v-.85c0-.65-.04-.66-.21-.67h-.1v-.07h.96v.34c.12-.26.31-.4.56-.4.29,0,.55.19.55.47,0,.24-.17.35-.36.35s-.35-.12-.35-.3c0-.21.19-.24.19-.35,0-.04-.04-.08-.12-.08-.15,0-.32.11-.45.4v1.15c0,.65.05.66.26.67h.15v.07h-1.38Z"/>
      <path class="cls-1" d="M24.24,79.09c0,.31-.09.55-.52.55s-.74-.26-.74-.79v-1.52h-.33v-.07h.33v-.83h.67v.83h.52v.07h-.52v1.52c0,.48.05.67.25.67.18,0,.28-.14.28-.43h.06Z"/>
      <path class="cls-1" d="M25.34,77.33v1.52c0,.65.04.66.26.67h.15v.07h-1.38v-.06h.1c.17,0,.21-.02.21-.67v-1.52h-.33v-.07h.33v-.31c0-.46.36-.82.99-.82.48,0,.76.22.76.49,0,.17-.13.29-.37.29-.21,0-.35-.12-.35-.29s.12-.23.12-.33c0-.06-.06-.1-.16-.1-.26,0-.32.18-.32.57v.5h.53v.07h-.53Z"/>
      <path class="cls-1" d="M27.31,79.65c-.79,0-1.26-.56-1.26-1.22s.47-1.22,1.26-1.22,1.26.55,1.26,1.22-.47,1.22-1.26,1.22ZM27.31,77.27c-.44,0-.54.43-.54,1.16s.1,1.15.54,1.15.54-.43.54-1.15-.1-1.16-.54-1.16Z"/>
      <path class="cls-1" d="M28.84,79.58v-.06h.1c.17,0,.21-.02.21-.67v-1.91c0-.65-.04-.66-.21-.67h-.1v-.07h.97v2.64c0,.65.05.66.21.67h.1v.07h-1.28Z"/>
      <path class="cls-1" d="M30.36,79.58v-.06h.1c.17,0,.21-.02.21-.67v-.85c0-.65-.04-.66-.21-.67h-.1v-.07h.97v1.58c0,.65.04.66.21.67h.1v.07h-1.28ZM30.99,76.84c-.22,0-.37-.13-.37-.33,0-.21.15-.34.37-.34s.38.13.38.33-.15.33-.38.33Z"/>
      <path class="cls-1" d="M33.18,79.65c-.79,0-1.26-.56-1.26-1.22s.47-1.22,1.26-1.22,1.26.55,1.26,1.22-.47,1.22-1.26,1.22ZM33.18,77.27c-.44,0-.54.43-.54,1.16s.11,1.15.54,1.15.54-.43.54-1.15-.11-1.16-.54-1.16Z"/>
    </g>
    <g>
      <path class="cls-1" d="M40.67,89.54c-.17,0-.3-.04-.47-.12-.05-.03-.08-.04-.12-.04-.07,0-.13.05-.21.17h-.05v-.76h.06l.04.12c.08.26.3.58.74.58.29,0,.5-.13.5-.42,0-.61-1.24-.42-1.24-1.28,0-.36.3-.61.68-.61.14,0,.25.04.39.11.03.01.07.04.1.04.05,0,.11-.05.17-.15h.04v.66h-.05l-.04-.12c-.09-.3-.34-.47-.62-.47s-.42.12-.42.34c0,.63,1.25.44,1.25,1.33,0,.38-.34.64-.79.64Z"/>
      <path class="cls-1" d="M43.41,89.48v-.35c-.12.19-.32.4-.71.4-.47,0-.82-.23-.82-.64s.31-.62.92-.62c.25,0,.41.04.6.12v-.62c0-.34-.19-.54-.55-.54-.27,0-.36.05-.36.12,0,.07.09.12.09.27s-.11.25-.25.25c-.16,0-.26-.11-.26-.25,0-.25.27-.46.78-.46s.97.25.97.79v.79c0,.65.04.66.23.67h.1v.07h-.73ZM42.84,89.43c.22,0,.45-.16.56-.38v-.59c-.17-.08-.32-.12-.53-.12-.25,0-.53.1-.53.58,0,.4.23.51.49.51Z"/>
      <path class="cls-1" d="M45.97,89.48c-.03-.07-.07-.16-.14-.28s-.21-.36-.28-.46c-.21-.35-.29-.39-.44-.39h-.05v.41c0,.65.04.66.22.67h.1v.07h-1.07v-.06h.1c.18-.02.22-.02.22-.67v-1.91c0-.65-.04-.66-.22-.67h-.1v-.07h.74v2.18h.04c.17,0,.33-.16.52-.37l.06-.07c.22-.24.3-.53.1-.55h-.07v-.07h.85v.06h-.07c-.16.01-.29.09-.76.6l-.05.06c-.07.07-.15.16-.21.21.16.07.25.21.47.53.1.15.24.36.29.42.14.2.25.3.36.31h.06v.07h-.67Z"/>
      <path class="cls-1" d="M46.78,89.48v-.06h.1c.19-.02.23-.02.23-.67v-.79c0-.65-.04-.66-.23-.67h-.1v-.07h.74v1.52c0,.65.04.66.23.67h.1v.07h-1.07ZM47.3,86.6c-.13,0-.24-.1-.24-.25s.11-.25.24-.25.24.09.24.25-.11.25-.24.25Z"/>
      <path class="cls-1" d="M49.68,89.48v-.06h.1c.18-.02.22-.02.22-.67v-.74c0-.49-.21-.73-.56-.73-.3,0-.5.16-.62.38v1.08c0,.65.04.66.22.67h.1v.07h-1.07v-.06h.1c.18-.02.22-.02.22-.67v-.79c0-.65-.04-.66-.22-.67h-.1v-.07h.73v.35c.12-.19.31-.4.71-.4.47,0,.89.26.89.84v.74c0,.65.04.66.22.67h.1v.07h-1.07Z"/>
      <path class="cls-1" d="M52.11,89.54c-.75,0-1.14-.58-1.14-1.18,0-.83.5-1.19,1.06-1.19.72,0,1.01.45,1.01,1.05h-1.59v.1c0,.47.08,1.12.76,1.12.4,0,.67-.18.75-.56h.07c-.09.43-.41.67-.93.67ZM52.04,87.24c-.47,0-.58.39-.58.93h1.12c0-.45-.08-.93-.54-.93Z"/>
      <path class="cls-1" d="M53.89,90.52v-.06h.06c.28-.03.38-.18.38-.79v-.19l-.73-1.66c-.19-.43-.27-.52-.38-.54h-.04v-.07h.98v.06h-.09c-.21.01-.2.12-.02.53l.49,1.14.37-.93c.13-.35.14-.72-.06-.73h-.08v-.07h.71v.06h-.04c-.14.03-.24.17-.46.73l-.59,1.47v.19c0,.61.09.75.37.78h.05v.07h-.92Z"/>
      <path class="cls-1" d="M57.05,89.48v-.35c-.12.19-.32.4-.71.4-.47,0-.82-.23-.82-.64s.31-.62.92-.62c.25,0,.41.04.6.12v-.62c0-.34-.19-.54-.55-.54-.27,0-.36.05-.36.12,0,.07.09.12.09.27s-.11.25-.25.25c-.16,0-.26-.11-.26-.25,0-.25.27-.46.78-.46s.97.25.97.79v.79c0,.65.04.66.23.67h.1v.07h-.73ZM56.48,89.43c.22,0,.45-.16.56-.38v-.59c-.17-.08-.32-.12-.53-.12-.25,0-.53.1-.53.58,0,.4.23.51.49.51Z"/>
      <path class="cls-1" d="M61.06,89.48v-.06h.1c.19-.02.23-.02.23-.67v-.74c0-.51-.22-.74-.53-.74s-.52.21-.64.46c.02.08.04.17.04.29v.73c0,.65.04.66.22.67h.1v.07h-1.07v-.06h.1c.18-.02.22-.02.22-.67v-.74c0-.51-.21-.74-.53-.74-.29,0-.48.17-.61.39v1.08c0,.65.04.66.22.67h.1v.07h-1.07v-.06h.1c.18-.02.22-.02.22-.67v-.79c0-.65-.04-.66-.22-.67h-.1v-.07h.73v.35c.11-.19.33-.41.7-.41s.68.17.81.49c.13-.28.39-.49.74-.49.46,0,.87.25.87.85v.73c0,.65.04.66.23.67h.1v.07h-1.07Z"/>
      <path class="cls-1" d="M63.97,89.48v-.35c-.12.19-.32.4-.71.4-.47,0-.82-.23-.82-.64s.31-.62.92-.62c.25,0,.41.04.6.12v-.62c0-.34-.19-.54-.55-.54-.27,0-.36.05-.36.12,0,.07.09.12.09.27s-.11.25-.25.25c-.16,0-.26-.11-.26-.25,0-.25.27-.46.78-.46s.97.25.97.79v.79c0,.65.04.66.23.67h.1v.07h-.73ZM63.4,89.43c.22,0,.45-.16.56-.38v-.59c-.17-.08-.32-.12-.53-.12-.25,0-.53.1-.53.58,0,.4.23.51.49.51Z"/>
      <path class="cls-1" d="M67.98,89.48v-.06h.1c.19-.02.23-.02.23-.67v-.74c0-.51-.22-.74-.53-.74s-.52.21-.64.46c.02.08.04.17.04.29v.73c0,.65.04.66.22.67h.1v.07h-1.07v-.06h.1c.18-.02.22-.02.22-.67v-.74c0-.51-.21-.74-.53-.74-.29,0-.48.17-.61.39v1.08c0,.65.04.66.22.67h.1v.07h-1.07v-.06h.1c.18-.02.22-.02.22-.67v-.79c0-.65-.04-.66-.22-.67h-.1v-.07h.73v.35c.11-.19.33-.41.7-.41s.68.17.81.49c.13-.28.39-.49.74-.49.46,0,.87.25.87.85v.73c0,.65.04.66.23.67h.1v.07h-1.07Z"/>
      <path class="cls-1" d="M70.41,89.54c-.72,0-1.13-.57-1.13-1.19s.42-1.18,1.13-1.18,1.14.57,1.14,1.19-.42,1.19-1.14,1.19ZM70.41,87.24c-.53,0-.65.5-.65,1.12s.12,1.12.65,1.12.65-.5.65-1.12-.12-1.12-.65-1.12Z"/>
      <path class="cls-1" d="M73.15,88.99c0,.31-.08.55-.46.55s-.6-.25-.6-.77v-1.48h-.36v-.07h.36v-.81h.42v.81h.58v.07h-.58v1.48c0,.45.06.67.29.67.2,0,.3-.14.3-.45h.06Z"/>
      <path class="cls-1" d="M74.49,89.54c-.72,0-1.13-.57-1.13-1.19s.42-1.18,1.13-1.18,1.14.57,1.14,1.19-.42,1.19-1.14,1.19ZM74.49,87.24c-.53,0-.65.5-.65,1.12s.12,1.12.65,1.12.65-.5.65-1.12-.12-1.12-.65-1.12Z"/>
      <path class="cls-1" d="M78.75,89.27c-.22,0-.41-.11-.49-.33-.11.16-.29.36-.64.36-.43,0-.75-.21-.75-.58s.27-.57.83-.57c.22,0,.38.04.54.11v-.58c0-.29-.17-.46-.5-.46-.24,0-.33.04-.33.11,0,.06.08.12.08.24s-.11.23-.23.23c-.14,0-.24-.1-.24-.23,0-.23.25-.42.7-.42s.88.22.88.71v.77c0,.41.05.54.21.54.28,0,.51-.33.51-1.01,0-1.13-.78-1.67-1.54-1.67-.84,0-1.51.59-1.51,1.79,0,1.04.53,1.79,1.58,1.79.52,0,.86-.14,1.17-.43l.04.05c-.32.31-.7.45-1.23.45-1.15,0-1.76-.78-1.76-1.86,0-.97.58-1.85,1.71-1.85.96,0,1.66.68,1.66,1.73,0,.66-.3,1.1-.71,1.1ZM78.25,88.85v-.52c-.16-.07-.29-.11-.48-.11-.23,0-.47.11-.47.53,0,.37.23.45.45.45s.41-.14.5-.34Z"/>
      <path class="cls-1" d="M80,90.01c0-.16.11-.26.26-.26.13,0,.25.1.25.26s-.09.18-.09.29c0,.07.13.17.45.17.6,0,.68-.35.68-.94v-.04c-.16.04-.31.06-.44.06-.77,0-1.23-.53-1.23-1.16,0-.82.63-1.15,1.25-1.15h1.15v.06h-.1c-.19.01-.23.02-.23.67v1.56c0,.64-.33,1-1.09,1-.54,0-.87-.27-.87-.51ZM81.55,87.3h-.42c-.54,0-.76.53-.76,1.08,0,.69.23,1.1.74,1.1.15,0,.27-.02.44-.06v-2.11Z"/>
      <path class="cls-1" d="M85.62,89.48v-.06h.1c.19-.02.23-.02.23-.67v-.74c0-.51-.22-.74-.53-.74s-.52.21-.64.46c.02.08.04.17.04.29v.73c0,.65.04.66.22.67h.1v.07h-1.07v-.06h.1c.18-.02.22-.02.22-.67v-.74c0-.51-.21-.74-.53-.74-.29,0-.48.17-.61.39v1.08c0,.65.04.66.22.67h.1v.07h-1.07v-.06h.1c.18-.02.22-.02.22-.67v-.79c0-.65-.04-.66-.22-.67h-.1v-.07h.73v.35c.11-.19.33-.41.7-.41s.68.17.81.49c.13-.28.39-.49.74-.49.46,0,.87.25.87.85v.73c0,.65.04.66.23.67h.1v.07h-1.07Z"/>
      <path class="cls-1" d="M88.54,89.48v-.35c-.12.19-.32.4-.71.4-.47,0-.82-.23-.82-.64s.31-.62.92-.62c.25,0,.41.04.6.12v-.62c0-.34-.19-.54-.55-.54-.27,0-.36.05-.36.12,0,.07.09.12.09.27s-.11.25-.25.25c-.16,0-.26-.11-.26-.25,0-.25.27-.46.78-.46s.97.25.97.79v.79c0,.65.04.66.23.67h.1v.07h-.73ZM87.96,89.43c.22,0,.45-.16.56-.38v-.59c-.17-.08-.32-.12-.53-.12-.25,0-.53.1-.53.58,0,.4.23.51.49.51Z"/>
      <path class="cls-1" d="M89.44,89.48v-.06h.1c.18-.02.22-.02.22-.67v-.79c0-.65-.04-.66-.22-.67h-.1v-.07h.74v1.52c0,.65.04.66.22.67h.1v.07h-1.07ZM89.97,86.6c-.13,0-.23-.1-.23-.25s.1-.25.23-.25.24.09.24.25-.1.25-.24.25Z"/>
      <path class="cls-1" d="M90.75,89.48v-.06h.1c.18-.02.22-.02.22-.67v-1.91c0-.65-.04-.66-.22-.67h-.1v-.07h.74v2.64c0,.65.04.66.22.67h.1v.07h-1.07Z"/>
      <path class="cls-1" d="M92.66,89.48c-.15,0-.25-.11-.25-.28,0-.16.11-.27.25-.27s.26.11.26.27-.11.28-.25.28Z"/>
      <path class="cls-1" d="M94.68,89.54c-.75,0-1.13-.58-1.13-1.18s.37-1.19,1.18-1.19c.53,0,.82.28.82.52,0,.16-.11.27-.27.27-.15,0-.27-.11-.27-.27s.09-.22.09-.3c0-.06-.06-.15-.37-.15-.63,0-.7.55-.7,1.09s.1,1.12.75,1.12c.4,0,.65-.18.75-.56h.07c-.1.44-.4.67-.92.67Z"/>
      <path class="cls-1" d="M97.02,89.54c-.72,0-1.13-.57-1.13-1.19s.42-1.18,1.13-1.18,1.14.57,1.14,1.19-.42,1.19-1.14,1.19ZM97.02,87.24c-.53,0-.65.5-.65,1.12s.12,1.12.65,1.12.65-.5.65-1.12-.12-1.12-.65-1.12Z"/>
      <path class="cls-1" d="M101.54,89.48v-.06h.1c.18-.02.22-.02.22-.67v-.74c0-.51-.21-.74-.53-.74s-.52.21-.64.46c.02.08.04.17.04.29v.73c0,.65.04.66.23.67h.1v.07h-1.07v-.06h.1c.19-.02.23-.02.23-.67v-.74c0-.51-.22-.74-.53-.74-.29,0-.48.17-.61.39v1.08c0,.65.04.66.23.67h.1v.07h-1.07v-.06h.1c.19-.02.23-.02.23-.67v-.79c0-.65-.04-.66-.23-.67h-.1v-.07h.73v.35c.12-.19.33-.41.7-.41s.68.17.81.49c.13-.28.38-.49.74-.49.46,0,.87.25.87.85v.73c0,.65.04.66.22.67h.1v.07h-1.07Z"/>
    </g>
    <g>
      <path class="cls-2" d="M244.22,132.43s-.49.12-.67-.77c-.11-.57-.26-.91-.49-1.1-.21-.17-.57-.28-.95-.14-.62.23-.64.75-.56,1.25.05.3.24,1.01.41,1.74.1.45.15.69.13.91-.02.27-.13.56-.57.74-.33.13-.67.04-.88-.11-.26-.18-.33-.45-.31-.66.02-.22.12-.39.22-.5.14-.16.38-.27.67-.26.47,0,.59.32.59.32,0,0-.05-.51-.69-.77-.41-.17-1.05-.05-1.45.26-.35.28-.71.72-.68,1.36s.37.98.67,1.19c.27.19.93.42,1.59.34.58-.08,1.1-.44,1.32-1.06.17-.47.09-.9-.16-1.69-.1-.32-.4-1-.56-1.43-.07-.19-.17-.53-.13-.8s.18-.42.37-.46.35.01.45.14.21.36.24.59c.02.19.02.51.08.74s.27.45.58.5c.41.07.7-.14.79-.31Z"/>
      <path class="cls-2" d="M237.87,135.33s-.07.16.22.33c.27.15,1.17.33,1.43.45.44.19.81.47,1.17,1.05s.39,1.01.39,1.01c0,0,.03-.64.46-1.19.43-.55.86-.82,1.24-.95.38-.13,1.1-.07,1.39-.37.16-.17.23-.27.23-.27,0,0-.21.8-.42,1.21-.11.22-.39.79-1.25.94-.66.12-1.04.1-1.2.35-.02.04.13-.62.69-1.1.5-.43,1.19-.68,1.37-.69,0,0-.7-.05-1.4.48-.39.29-.59.64-.74.94-.11.22-.22.83-.27,1.18-.03.2-.09.44-.16-.01s-.25-.98-.49-1.31c-.22-.31-.53-.72-.99-.95-.35-.18-.99-.35-.99-.35,0,0,.63.28,1.09.63.41.31.45.41.66.67.15.18.39.65.29.54-.15-.17-.78-.25-1.24-.46-.78-.36-1.14-.95-1.14-.95,0,0-.54-.69-.34-1.18Z"/>
    </g>
    <image width="450" height="450" transform="translate(14.5 112.13) scale(.06)" xlink:href="../../../../../Downloads/qrcode_sakineyamamoto-hash.github.io.png"/>
  </g>
</svg>