<?xml version="1.0" encoding="UTF-8"?>
<svg xmlns="http://www.w3.org/2000/svg" xmlns:xlink="http://www.w3.org/1999/xlink" viewBox="0 0 257.95 155.91">
  <defs>
    <style>
      .cls-1 {
        fill: #1e2a43;
      }

      .cls-2 {
        fill: #f6f2ee;
      }
    </style>
  </defs>
  <g id="_レイヤー_2" data-name="レイヤー 2">
    <rect class="cls-2" x=".3" y="-.17" width="257.95" height="155.91"/>
  </g>
  <g id="_レイヤー_3" data-name="レイヤー 3">
    <polygon class="cls-1" points="257.95 0 139.18 155.91 257.95 155.91 257.95 0"/>
    <g>
      <path class="cls-1" d="M40.29,89.41v-.06h.1c.19-.01.23-.02.23-.67v-.74c0-.51-.22-.74-.52-.74-.28,0-.48.17-.6.39v1.08c0,.65.04.66.22.67h.1v.07h-1.07v-.06h.1c.18-.01.22-.02.22-.67v-1.91c0-.65-.04-.66-.22-.67h-.1v-.07h.74v1.46c.12-.19.3-.4.68-.4.44,0,.85.26.85.84v.74c0,.65.04.66.23.67h.1v.07h-1.07Z"/>
      <path class="cls-1" d="M42.95,88.92c0,.31-.08.55-.46.55s-.6-.25-.6-.77v-1.48h-.36v-.06h.36v-.81h.42v.81h.58v.06h-.58v1.48c0,.45.07.67.29.67.2,0,.3-.15.3-.45h.06Z"/>
      <path class="cls-1" d="M44.49,88.92c0,.31-.08.55-.46.55s-.6-.25-.6-.77v-1.48h-.36v-.06h.36v-.81h.42v.81h.58v.06h-.58v1.48c0,.45.07.67.29.67.2,0,.3-.15.3-.45h.06Z"/>
      <path class="cls-1" d="M45.9,89.47c-.12,0-.28-.01-.44-.06v.31c0,.65.04.66.28.67h.15v.07h-1.17v-.06h.1c.18-.01.22-.02.22-.67v-1.83c0-.65-.04-.66-.22-.67h-.1v-.06h1.15c.63,0,1.25.33,1.25,1.15,0,.64-.46,1.16-1.23,1.16ZM45.88,87.23h-.42v2.11c.17.04.29.07.44.07.52,0,.74-.41.74-1.1,0-.55-.22-1.08-.76-1.08Z"/>
      <path class="cls-1" d="M48.36,89.48c-.17,0-.3-.04-.46-.12-.05-.02-.08-.04-.12-.04-.07,0-.13.05-.21.17h-.05v-.76h.06l.04.12c.08.26.29.58.74.58.29,0,.51-.13.51-.42,0-.61-1.24-.42-1.24-1.28,0-.36.3-.61.68-.61.15,0,.25.04.4.11.03.01.07.04.1.04.06,0,.11-.05.17-.15h.04v.66h-.06l-.03-.11c-.1-.3-.34-.48-.62-.48s-.42.12-.42.34c0,.63,1.25.44,1.25,1.33,0,.38-.33.64-.79.64Z"/>
      <path class="cls-1" d="M50.03,87.71c-.15,0-.25-.11-.25-.28,0-.16.11-.27.25-.27s.26.11.26.27-.11.28-.25.28ZM50.03,89.41c-.15,0-.25-.11-.25-.28,0-.16.11-.27.25-.27s.26.11.26.27-.11.28-.25.28Z"/>
      <path class="cls-1" d="M50.86,89.44l1.38-3.47.09.04-1.38,3.47-.08-.04Z"/>
      <path class="cls-1" d="M52.04,89.44l1.38-3.47.08.04-1.38,3.47-.09-.04Z"/>
      <path class="cls-1" d="M54.24,89.48c-.17,0-.3-.04-.47-.12-.05-.02-.08-.04-.12-.04-.07,0-.13.05-.21.17h-.05v-.76h.06l.04.12c.08.26.3.58.74.58.29,0,.5-.13.5-.42,0-.61-1.24-.42-1.24-1.28,0-.36.3-.61.68-.61.14,0,.25.04.39.11.03.01.07.04.1.04.05,0,.11-.05.17-.15h.04v.66h-.05l-.04-.11c-.09-.3-.34-.48-.62-.48s-.42.12-.42.34c0,.63,1.25.44,1.25,1.33,0,.38-.34.64-.79.64Z"/>
      <path class="cls-1" d="M56.98,89.41v-.35c-.12.19-.32.4-.71.4-.47,0-.82-.23-.82-.64s.31-.62.92-.62c.25,0,.41.03.6.12v-.62c0-.34-.19-.54-.55-.54-.27,0-.36.05-.36.12,0,.06.09.12.09.27s-.11.25-.25.25c-.16,0-.26-.11-.26-.25,0-.25.27-.46.78-.46s.97.25.97.79v.79c0,.65.04.66.23.67h.1v.07h-.73ZM56.41,89.36c.22,0,.45-.16.56-.38v-.59c-.17-.08-.32-.12-.53-.12-.25,0-.53.11-.53.58,0,.41.23.51.49.51Z"/>
      <path class="cls-1" d="M59.54,89.41c-.03-.07-.07-.16-.14-.28s-.21-.36-.28-.47c-.21-.35-.29-.39-.44-.39h-.05v.41c0,.65.04.66.22.67h.1v.07h-1.07v-.06h.1c.18-.01.22-.02.22-.67v-1.91c0-.65-.04-.66-.22-.67h-.1v-.07h.74v2.18h.04c.17,0,.33-.17.52-.37l.06-.07c.22-.24.3-.53.1-.55h-.07v-.06h.85v.06h-.07c-.16.01-.29.09-.76.6l-.05.06c-.07.07-.15.16-.21.21.16.06.25.21.47.53.1.16.24.36.29.42.14.2.25.3.36.31h.06v.07h-.67Z"/>
      <path class="cls-1" d="M60.35,89.41v-.06h.1c.19-.01.23-.02.23-.67v-.79c0-.65-.04-.66-.23-.67h-.1v-.06h.74v1.52c0,.65.04.66.23.67h.1v.07h-1.07ZM60.88,86.53c-.13,0-.24-.1-.24-.26s.11-.25.24-.25.24.09.24.25-.11.26-.24.26Z"/>
      <path class="cls-1" d="M63.25,89.41v-.06h.1c.19-.01.23-.02.23-.67v-.74c0-.49-.22-.73-.56-.73-.3,0-.5.16-.62.38v1.08c0,.65.04.66.23.67h.1v.07h-1.07v-.06h.1c.19-.01.23-.02.23-.67v-.79c0-.65-.04-.66-.23-.67h-.1v-.06h.73v.34c.12-.19.32-.4.71-.4.47,0,.89.26.89.84v.74c0,.65.04.66.23.67h.1v.07h-1.07Z"/>
      <path class="cls-1" d="M65.68,89.48c-.75,0-1.14-.58-1.14-1.18,0-.83.5-1.19,1.06-1.19.72,0,1.01.45,1.01,1.05h-1.59v.1c0,.48.08,1.12.76,1.12.4,0,.67-.19.76-.57h.07c-.1.43-.41.67-.93.67ZM65.61,87.17c-.47,0-.58.39-.58.93h1.12c0-.45-.08-.93-.54-.93Z"/>
      <path class="cls-1" d="M67.46,90.45v-.06h.05c.28-.03.38-.18.38-.79v-.19l-.73-1.66c-.18-.43-.26-.52-.38-.54h-.04v-.06h.98v.06h-.09c-.21.01-.2.12-.02.53l.49,1.14.37-.93c.14-.34.15-.72-.05-.73h-.08v-.06h.71v.06h-.04c-.14.03-.24.17-.46.73l-.59,1.47v.19c0,.61.09.75.37.78h.05v.07h-.92Z"/>
      <path class="cls-1" d="M70.62,89.41v-.35c-.12.19-.32.4-.71.4-.47,0-.82-.23-.82-.64s.31-.62.92-.62c.25,0,.41.03.6.12v-.62c0-.34-.18-.54-.55-.54-.27,0-.36.05-.36.12,0,.06.09.12.09.27s-.12.25-.25.25c-.16,0-.27-.11-.27-.25,0-.25.28-.46.78-.46s.97.25.97.79v.79c0,.65.04.66.22.67h.1v.07h-.73ZM70.05,89.36c.22,0,.45-.16.56-.38v-.59c-.17-.08-.32-.12-.53-.12-.25,0-.53.11-.53.58,0,.41.24.51.49.51Z"/>
      <path class="cls-1" d="M74.63,89.41v-.06h.1c.18-.01.22-.02.22-.67v-.74c0-.51-.21-.74-.53-.74s-.52.21-.64.46c.02.08.04.17.04.29v.73c0,.65.04.66.23.67h.1v.07h-1.07v-.06h.1c.19-.01.23-.02.23-.67v-.74c0-.51-.22-.74-.53-.74-.29,0-.48.17-.61.39v1.08c0,.65.04.66.23.67h.1v.07h-1.07v-.06h.1c.19-.01.23-.02.23-.67v-.79c0-.65-.04-.66-.23-.67h-.1v-.06h.73v.34c.12-.19.33-.41.7-.41s.68.17.81.49c.13-.28.38-.49.74-.49.46,0,.87.25.87.85v.73c0,.65.04.66.22.67h.1v.07h-1.07Z"/>
      <path class="cls-1" d="M77.54,89.41v-.35c-.12.19-.32.4-.71.4-.47,0-.82-.23-.82-.64s.31-.62.92-.62c.25,0,.41.03.6.12v-.62c0-.34-.18-.54-.55-.54-.27,0-.36.05-.36.12,0,.06.09.12.09.27s-.12.25-.25.25c-.16,0-.27-.11-.27-.25,0-.25.28-.46.78-.46s.97.25.97.79v.79c0,.65.04.66.22.67h.1v.07h-.73ZM76.97,89.36c.22,0,.45-.16.56-.38v-.59c-.17-.08-.32-.12-.53-.12-.25,0-.53.11-.53.58,0,.41.24.51.49.51Z"/>
      <path class="cls-1" d="M81.55,89.41v-.06h.1c.18-.01.22-.02.22-.67v-.74c0-.51-.21-.74-.53-.74s-.52.21-.64.46c.02.08.04.17.04.29v.73c0,.65.04.66.23.67h.1v.07h-1.07v-.06h.1c.19-.01.23-.02.23-.67v-.74c0-.51-.22-.74-.53-.74-.29,0-.48.17-.61.39v1.08c0,.65.04.66.23.67h.1v.07h-1.07v-.06h.1c.19-.01.23-.02.23-.67v-.79c0-.65-.04-.66-.23-.67h-.1v-.06h.73v.34c.12-.19.33-.41.7-.41s.68.17.81.49c.13-.28.38-.49.74-.49.46,0,.87.25.87.85v.73c0,.65.04.66.22.67h.1v.07h-1.07Z"/>
      <path class="cls-1" d="M83.97,89.48c-.71,0-1.13-.57-1.13-1.19s.42-1.18,1.13-1.18,1.14.57,1.14,1.19-.42,1.19-1.14,1.19ZM83.97,87.17c-.53,0-.65.5-.65,1.12s.12,1.12.65,1.12.65-.5.65-1.12-.12-1.13-.65-1.13Z"/>
      <path class="cls-1" d="M86.71,88.92c0,.31-.08.55-.46.55s-.6-.25-.6-.77v-1.48h-.36v-.06h.36v-.81h.42v.81h.58v.06h-.58v1.48c0,.45.07.67.29.67.2,0,.3-.15.3-.45h.06Z"/>
      <path class="cls-1" d="M88.05,89.48c-.71,0-1.13-.57-1.13-1.19s.42-1.18,1.13-1.18,1.14.57,1.14,1.19-.42,1.19-1.14,1.19ZM88.05,87.17c-.53,0-.65.5-.65,1.12s.12,1.12.65,1.12.65-.5.65-1.12-.12-1.13-.65-1.13Z"/>
      <path class="cls-1" d="M89.81,88.4v-.29h1.05v.29h-1.05Z"/>
      <path class="cls-1" d="M92.71,89.41v-.06h.1c.19-.01.23-.02.23-.67v-.74c0-.51-.22-.74-.52-.74-.28,0-.48.17-.6.39v1.08c0,.65.04.66.22.67h.1v.07h-1.07v-.06h.1c.18-.01.22-.02.22-.67v-1.91c0-.65-.04-.66-.22-.67h-.1v-.07h.74v1.46c.12-.19.3-.4.68-.4.44,0,.85.26.85.84v.74c0,.65.04.66.23.67h.1v.07h-1.07Z"/>
      <path class="cls-1" d="M95.62,89.41v-.35c-.12.19-.32.4-.71.4-.47,0-.82-.23-.82-.64s.31-.62.92-.62c.25,0,.41.03.6.12v-.62c0-.34-.18-.54-.55-.54-.27,0-.36.05-.36.12,0,.06.09.12.09.27s-.12.25-.25.25c-.16,0-.27-.11-.27-.25,0-.25.28-.46.78-.46s.97.25.97.79v.79c0,.65.04.66.22.67h.1v.07h-.73ZM95.05,89.36c.22,0,.45-.16.56-.38v-.59c-.17-.08-.32-.12-.53-.12-.25,0-.53.11-.53.58,0,.41.24.51.49.51Z"/>
      <path class="cls-1" d="M97.47,89.48c-.17,0-.3-.04-.46-.12-.05-.02-.08-.04-.12-.04-.07,0-.13.05-.21.17h-.05v-.76h.06l.04.12c.08.26.29.58.74.58.29,0,.51-.13.51-.42,0-.61-1.24-.42-1.24-1.28,0-.36.3-.61.68-.61.15,0,.25.04.4.11.03.01.07.04.1.04.06,0,.11-.05.17-.15h.04v.66h-.06l-.03-.11c-.1-.3-.34-.48-.62-.48s-.42.12-.42.34c0,.63,1.25.44,1.25,1.33,0,.38-.33.64-.79.64Z"/>
      <path class="cls-1" d="M100.17,89.41v-.06h.1c.19-.01.23-.02.23-.67v-.74c0-.51-.22-.74-.52-.74-.28,0-.48.17-.6.39v1.08c0,.65.04.66.22.67h.1v.07h-1.07v-.06h.1c.18-.01.22-.02.22-.67v-1.91c0-.65-.04-.66-.22-.67h-.1v-.07h.74v1.46c.12-.19.3-.4.68-.4.44,0,.85.26.85.84v.74c0,.65.04.66.23.67h.1v.07h-1.07Z"/>
      <path class="cls-1" d="M102.02,89.41c-.15,0-.25-.11-.25-.28,0-.16.1-.27.25-.27s.25.11.25.27-.1.28-.25.28Z"/>
      <path class="cls-1" d="M103.04,89.94c0-.16.11-.26.26-.26.13,0,.25.1.25.26s-.09.18-.09.29c0,.08.13.17.45.17.6,0,.68-.35.68-.94v-.04c-.16.04-.31.06-.44.06-.77,0-1.23-.53-1.23-1.16,0-.82.63-1.15,1.25-1.15h1.15v.06h-.1c-.19.01-.23.02-.23.67v1.56c0,.64-.33,1-1.09,1-.54,0-.87-.27-.87-.51ZM104.58,87.23h-.42c-.54,0-.76.53-.76,1.08,0,.69.23,1.1.74,1.1.15,0,.27-.02.44-.07v-2.11Z"/>
      <path class="cls-1" d="M105.56,89.41v-.06h.1c.18-.01.22-.02.22-.67v-.79c0-.65-.04-.66-.22-.67h-.1v-.06h.74v1.52c0,.65.04.66.22.67h.1v.07h-1.07ZM106.08,86.53c-.13,0-.23-.1-.23-.26s.1-.25.23-.25.24.09.24.25-.1.26-.24.26Z"/>
      <path class="cls-1" d="M108.28,88.92c0,.31-.08.55-.46.55s-.6-.25-.6-.77v-1.48h-.36v-.06h.36v-.81h.42v.81h.58v.06h-.58v1.48c0,.45.07.67.29.67.2,0,.3-.15.3-.45h.06Z"/>
      <path class="cls-1" d="M110.04,89.41v-.06h.1c.19-.01.23-.02.23-.67v-.74c0-.51-.22-.74-.52-.74-.28,0-.48.17-.6.39v1.08c0,.65.04.66.22.67h.1v.07h-1.07v-.06h.1c.18-.01.22-.02.22-.67v-1.91c0-.65-.04-.66-.22-.67h-.1v-.07h.74v1.46c.12-.19.3-.4.68-.4.44,0,.85.26.85.84v.74c0,.65.04.66.23.67h.1v.07h-1.07Z"/>
      <path class="cls-1" d="M113.05,89.41v-.35c-.12.19-.29.41-.66.41-.44,0-.85-.26-.85-.85v-.73c0-.65-.04-.66-.21-.67h-.1v-.06h.73v1.47c0,.51.21.74.51.74s.45-.17.57-.39v-1.08c0-.65-.04-.66-.23-.67h-.1v-.06h.74v1.52c0,.65.04.66.23.67h.1v.07h-.73Z"/>
      <path class="cls-1" d="M115.16,89.41h-1.15v-.06h.1c.18-.01.22-.02.22-.67v-1.91c0-.65-.04-.66-.22-.67h-.1v-.07h.74v1.13c.16-.05.32-.06.44-.06.77,0,1.23.53,1.23,1.16,0,.82-.62,1.15-1.26,1.15ZM115.19,87.17c-.14,0-.27.01-.44.06v2.11h.41c.54,0,.77-.53.77-1.08,0-.69-.22-1.1-.74-1.1Z"/>
      <path class="cls-1" d="M117.31,89.41c-.15,0-.25-.11-.25-.28,0-.16.1-.27.25-.27s.25.11.25.27-.1.28-.25.28Z"/>
      <path class="cls-1" d="M118.16,89.41v-.06h.1c.19-.01.23-.02.23-.67v-.79c0-.65-.04-.66-.23-.67h-.1v-.06h.74v1.52c0,.65.04.66.23.67h.1v.07h-1.07ZM118.68,86.53c-.13,0-.24-.1-.24-.26s.11-.25.24-.25.24.09.24.25-.11.26-.24.26Z"/>
      <path class="cls-1" d="M120.65,89.48c-.71,0-1.13-.57-1.13-1.19s.42-1.18,1.13-1.18,1.14.57,1.14,1.19-.42,1.19-1.14,1.19ZM120.65,87.17c-.53,0-.65.5-.65,1.12s.12,1.12.65,1.12.65-.5.65-1.12-.12-1.13-.65-1.13Z"/>
      <path class="cls-1" d="M121.96,89.44l1.38-3.47.08.04-1.38,3.47-.09-.04Z"/>
      <path class="cls-1" d="M124.41,89.47c-.12,0-.28-.01-.44-.06v.31c0,.65.04.66.28.67h.15v.07h-1.17v-.06h.1c.18-.01.22-.02.22-.67v-1.83c0-.65-.04-.66-.22-.67h-.1v-.06h1.15c.63,0,1.25.33,1.25,1.15,0,.64-.46,1.16-1.23,1.16ZM124.38,87.23h-.42v2.11c.17.04.29.07.44.07.52,0,.74-.41.74-1.1,0-.55-.22-1.08-.76-1.08Z"/>
      <path class="cls-1" d="M127.18,89.48c-.72,0-1.13-.57-1.13-1.19s.42-1.18,1.13-1.18,1.14.57,1.14,1.19-.42,1.19-1.14,1.19ZM127.18,87.17c-.53,0-.65.5-.65,1.12s.12,1.12.65,1.12.65-.5.65-1.12-.12-1.13-.65-1.13Z"/>
      <path class="cls-1" d="M128.61,89.41v-.06h.1c.19-.01.23-.02.23-.67v-.79c0-.65-.04-.66-.23-.67h-.1v-.06h.73v.34c.14-.28.33-.41.56-.41s.44.15.44.39c0,.2-.13.26-.25.26-.13,0-.24-.09-.24-.22,0-.18.14-.2.14-.29,0-.04-.03-.07-.12-.07-.19,0-.37.12-.52.42v1.08c0,.65.04.66.28.67h.15v.07h-1.17Z"/>
      <path class="cls-1" d="M131.85,88.92c0,.31-.08.55-.46.55s-.6-.25-.6-.77v-1.48h-.36v-.06h.36v-.81h.42v.81h.58v.06h-.58v1.48c0,.45.07.67.29.67.2,0,.3-.15.3-.45h.06Z"/>
      <path class="cls-1" d="M132.73,87.23v1.45c0,.65.04.66.28.67h.15v.07h-1.17v-.06h.1c.18-.01.22-.02.22-.67v-1.45h-.36v-.06h.36v-.41c0-.46.29-.79.78-.79.38,0,.61.21.61.46,0,.15-.11.25-.27.25-.13,0-.25-.1-.25-.25s.09-.21.09-.29c0-.05-.07-.11-.19-.11-.29,0-.36.15-.36.54v.59h.58v.06h-.58Z"/>
      <path class="cls-1" d="M134.63,89.48c-.72,0-1.13-.57-1.13-1.19s.42-1.18,1.13-1.18,1.14.57,1.14,1.19-.42,1.19-1.14,1.19ZM134.63,87.17c-.53,0-.65.5-.65,1.12s.12,1.12.65,1.12.65-.5.65-1.12-.12-1.13-.65-1.13Z"/>
      <path class="cls-1" d="M136.06,89.41v-.06h.1c.19-.01.23-.02.23-.67v-1.91c0-.65-.04-.66-.23-.67h-.1v-.07h.74v2.64c0,.65.04.66.23.67h.1v.07h-1.07Z"/>
      <path class="cls-1" d="M137.36,89.41v-.06h.1c.19-.01.23-.02.23-.67v-.79c0-.65-.04-.66-.23-.67h-.1v-.06h.74v1.52c0,.65.04.66.23.67h.1v.07h-1.07ZM137.89,86.53c-.13,0-.24-.1-.24-.26s.11-.25.24-.25.24.09.24.25-.11.26-.24.26Z"/>
      <path class="cls-1" d="M139.85,89.48c-.71,0-1.13-.57-1.13-1.19s.42-1.18,1.13-1.18,1.14.57,1.14,1.19-.42,1.19-1.14,1.19ZM139.85,87.17c-.53,0-.65.5-.65,1.12s.12,1.12.65,1.12.65-.5.65-1.12-.12-1.13-.65-1.13Z"/>
      <path class="cls-1" d="M141.16,89.44l1.38-3.47.08.04-1.38,3.47-.09-.04Z"/>
    </g>
    <g>
      <path class="cls-1" d="M13.62,99.35v-.06h.11c.22-.02.27-.08.27-.76v-1.73c0-.69-.05-.75-.27-.76h-.11v-.07h2.64v1.02h-.04l-.06-.17c-.19-.55-.53-.79-1.03-.79h-.17c-.21,0-.24.08-.24.76v.79h.23c.26,0,.48-.14.59-.5l.04-.11h.04v1.29h-.04l-.04-.11c-.11-.36-.33-.5-.59-.5h-.23v.88c0,.68.03.76.23.76h.28c.54,0,.8-.27,1.03-.94l.06-.17h.04v1.17h-2.74Z"/>
      <path class="cls-1" d="M16.91,98.35v-.33h1.05v.33h-1.05Z"/>
      <path class="cls-1" d="M21.48,99.35v-.06h.09c.17-.02.21-.03.21-.67v-.92c0-.39-.16-.6-.43-.6-.25,0-.43.18-.54.42.03.09.04.18.04.3v.79c0,.65.04.66.21.67h.09v.06h-1.26v-.06h.09c.17-.02.21-.03.21-.67v-.92c0-.39-.16-.6-.42-.6-.23,0-.39.14-.51.35v1.17c0,.65.04.66.21.67h.09v.06h-1.27v-.06h.1c.17,0,.21-.03.21-.67v-.85c0-.65-.04-.66-.21-.67h-.1v-.06h.96v.33c.12-.2.33-.39.71-.39.37,0,.7.16.83.47.12-.28.36-.47.76-.47.48,0,.9.24.9.85v.79c0,.65.04.66.21.67h.1v.06h-1.27Z"/>
      <path class="cls-1" d="M24.62,99.35v-.32c-.11.2-.31.38-.74.38-.49,0-.85-.25-.85-.66,0-.44.35-.66.94-.66.28,0,.45.04.64.12v-.63c0-.35-.16-.54-.49-.54-.22,0-.32.05-.32.13,0,.09.12.15.12.32s-.14.31-.35.31c-.23,0-.37-.14-.37-.31,0-.3.33-.52.93-.52s1.13.24,1.13.82v.82c0,.65.04.66.21.67h.1v.06h-.96ZM24.13,99.28c.19,0,.38-.15.48-.35v-.66c-.14-.07-.27-.11-.44-.11-.23,0-.45.13-.45.6,0,.38.18.52.41.52Z"/>
      <path class="cls-1" d="M25.76,99.35v-.06h.1c.17,0,.21-.03.21-.67v-.85c0-.65-.04-.66-.21-.67h-.1v-.06h.97v1.58c0,.65.04.66.21.67h.1v.06h-1.28ZM26.39,96.61c-.22,0-.37-.13-.37-.33,0-.21.15-.34.37-.34s.38.13.38.33-.15.34-.38.34Z"/>
      <path class="cls-1" d="M27.28,99.35v-.06h.1c.17,0,.21-.03.21-.67v-1.91c0-.65-.04-.66-.21-.67h-.1v-.07h.97v2.64c0,.65.04.66.21.67h.1v.06h-1.28Z"/>
    </g>
    <g>
      <path class="cls-1" d="M15.42,88.03h-.7v.58c0,.69.05.74.43.76h.1v.07h-1.63v-.06h.1c.22-.01.27-.08.27-.76v-1.73c0-.69-.05-.75-.27-.76h-.1v-.07h1.79c.8,0,1.27.37,1.27,1,0,.6-.42.97-1.26.97ZM15.3,86.12h-.34c-.21,0-.24.08-.24.76v1.09h.58c.43,0,.58-.37.58-.92,0-.51-.17-.92-.58-.92Z"/>
      <path class="cls-1" d="M18.01,89.5c-.79,0-1.26-.56-1.26-1.22s.47-1.22,1.26-1.22,1.26.55,1.26,1.22-.47,1.22-1.26,1.22ZM18.01,87.13c-.44,0-.54.43-.54,1.16s.1,1.15.54,1.15.54-.43.54-1.15-.1-1.16-.54-1.16Z"/>
      <path class="cls-1" d="M19.54,89.43v-.06h.1c.17,0,.21-.02.21-.67v-.85c0-.65-.04-.66-.21-.67h-.1v-.07h.96v.34c.12-.26.31-.4.56-.4.29,0,.55.19.55.47,0,.24-.17.35-.36.35s-.35-.12-.35-.3c0-.21.19-.24.19-.35,0-.04-.04-.08-.12-.08-.15,0-.32.11-.45.4v1.15c0,.65.05.66.26.67h.15v.07h-1.38Z"/>
      <path class="cls-1" d="M23.28,88.94c0,.31-.09.55-.52.55s-.74-.26-.74-.79v-1.52h-.33v-.07h.33v-.83h.67v.83h.52v.07h-.52v1.52c0,.48.05.67.25.67.18,0,.28-.14.28-.43h.06Z"/>
      <path class="cls-1" d="M24.38,87.19v1.52c0,.65.04.66.26.67h.15v.07h-1.38v-.06h.1c.17,0,.21-.02.21-.67v-1.52h-.33v-.07h.33v-.31c0-.46.36-.82.99-.82.48,0,.76.22.76.49,0,.17-.13.29-.37.29-.21,0-.35-.12-.35-.29s.12-.23.12-.33c0-.06-.06-.1-.16-.1-.26,0-.32.18-.32.57v.5h.53v.07h-.53Z"/>
      <path class="cls-1" d="M26.35,89.5c-.79,0-1.26-.56-1.26-1.22s.47-1.22,1.26-1.22,1.26.55,1.26,1.22-.47,1.22-1.26,1.22ZM26.35,87.13c-.44,0-.54.43-.54,1.16s.1,1.15.54,1.15.54-.43.54-1.15-.1-1.16-.54-1.16Z"/>
      <path class="cls-1" d="M27.88,89.43v-.06h.1c.17,0,.21-.02.21-.67v-1.91c0-.65-.04-.66-.21-.67h-.1v-.07h.97v2.64c0,.65.05.66.21.67h.1v.07h-1.28Z"/>
      <path class="cls-1" d="M29.4,89.43v-.06h.1c.17,0,.21-.02.21-.67v-.85c0-.65-.04-.66-.21-.67h-.1v-.07h.97v1.58c0,.65.04.66.21.67h.1v.07h-1.28ZM30.03,86.69c-.22,0-.37-.13-.37-.33,0-.21.15-.34.37-.34s.38.13.38.33-.15.33-.38.33Z"/>
      <path class="cls-1" d="M32.22,89.5c-.79,0-1.26-.56-1.26-1.22s.47-1.22,1.26-1.22,1.26.55,1.26,1.22-.47,1.22-1.26,1.22ZM32.22,87.13c-.44,0-.54.43-.54,1.16s.11,1.15.54,1.15.54-.43.54-1.15-.11-1.16-.54-1.16Z"/>
    </g>
    <g>
      <path class="cls-1" d="M39.71,99.39c-.17,0-.3-.04-.47-.12-.05-.03-.08-.04-.12-.04-.07,0-.13.05-.21.17h-.05v-.76h.06l.04.12c.08.26.3.58.74.58.29,0,.5-.13.5-.42,0-.61-1.24-.42-1.24-1.28,0-.36.3-.61.68-.61.14,0,.25.04.39.11.03.01.07.04.1.04.05,0,.11-.05.17-.15h.04v.66h-.05l-.04-.12c-.09-.3-.34-.47-.62-.47s-.42.12-.42.34c0,.63,1.25.44,1.25,1.33,0,.38-.34.64-.79.64Z"/>
      <path class="cls-1" d="M42.45,99.33v-.35c-.12.19-.32.4-.71.4-.47,0-.82-.23-.82-.64s.31-.62.92-.62c.25,0,.41.04.6.12v-.62c0-.34-.19-.54-.55-.54-.27,0-.36.05-.36.12,0,.07.09.12.09.27s-.11.25-.25.25c-.16,0-.26-.11-.26-.25,0-.25.27-.46.78-.46s.97.25.97.79v.79c0,.65.04.66.23.67h.1v.07h-.73ZM41.88,99.28c.22,0,.45-.16.56-.38v-.59c-.17-.08-.32-.12-.53-.12-.25,0-.53.1-.53.58,0,.4.23.51.49.51Z"/>
      <path class="cls-1" d="M45.01,99.33c-.03-.07-.07-.16-.14-.28s-.21-.36-.28-.46c-.21-.35-.29-.39-.44-.39h-.05v.41c0,.65.04.66.22.67h.1v.07h-1.07v-.06h.1c.18-.02.22-.02.22-.67v-1.91c0-.65-.04-.66-.22-.67h-.1v-.07h.74v2.18h.04c.17,0,.33-.16.52-.37l.06-.07c.22-.24.3-.53.1-.55h-.07v-.07h.85v.06h-.07c-.16.01-.29.09-.76.6l-.05.06c-.07.07-.15.16-.21.21.16.07.25.21.47.53.1.15.24.36.29.42.14.2.25.3.36.31h.06v.07h-.67Z"/>
      <path class="cls-1" d="M45.82,99.33v-.06h.1c.19-.02.23-.02.23-.67v-.79c0-.65-.04-.66-.23-.67h-.1v-.07h.74v1.52c0,.65.04.66.23.67h.1v.07h-1.07ZM46.34,96.45c-.13,0-.24-.1-.24-.25s.11-.25.24-.25.24.09.24.25-.11.25-.24.25Z"/>
      <path class="cls-1" d="M48.72,99.33v-.06h.1c.18-.02.22-.02.22-.67v-.74c0-.49-.21-.73-.56-.73-.3,0-.5.16-.62.38v1.08c0,.65.04.66.22.67h.1v.07h-1.07v-.06h.1c.18-.02.22-.02.22-.67v-.79c0-.65-.04-.66-.22-.67h-.1v-.07h.73v.35c.12-.19.31-.4.71-.4.47,0,.89.26.89.84v.74c0,.65.04.66.22.67h.1v.07h-1.07Z"/>
      <path class="cls-1" d="M51.15,99.39c-.75,0-1.14-.58-1.14-1.18,0-.83.5-1.19,1.06-1.19.72,0,1.01.45,1.01,1.05h-1.59v.1c0,.47.08,1.12.76,1.12.4,0,.67-.18.75-.56h.07c-.09.43-.41.67-.93.67ZM51.08,97.09c-.47,0-.58.39-.58.93h1.12c0-.45-.08-.93-.54-.93Z"/>
      <path class="cls-1" d="M52.93,100.37v-.06h.06c.28-.03.38-.18.38-.79v-.19l-.73-1.66c-.19-.43-.27-.52-.38-.54h-.04v-.07h.98v.06h-.09c-.21.01-.2.12-.02.53l.49,1.14.37-.93c.13-.35.14-.72-.06-.73h-.08v-.07h.71v.06h-.04c-.14.03-.24.17-.46.73l-.59,1.47v.19c0,.61.09.75.37.78h.05v.07h-.92Z"/>
      <path class="cls-1" d="M56.09,99.33v-.35c-.12.19-.32.4-.71.4-.47,0-.82-.23-.82-.64s.31-.62.92-.62c.25,0,.41.04.6.12v-.62c0-.34-.19-.54-.55-.54-.27,0-.36.05-.36.12,0,.07.09.12.09.27s-.11.25-.25.25c-.16,0-.26-.11-.26-.25,0-.25.27-.46.78-.46s.97.25.97.79v.79c0,.65.04.66.23.67h.1v.07h-.73ZM55.52,99.28c.22,0,.45-.16.56-.38v-.59c-.17-.08-.32-.12-.53-.12-.25,0-.53.1-.53.58,0,.4.23.51.49.51Z"/>
      <path class="cls-1" d="M60.1,99.33v-.06h.1c.19-.02.23-.02.23-.67v-.74c0-.51-.22-.74-.53-.74s-.52.21-.64.46c.02.08.04.17.04.29v.73c0,.65.04.66.22.67h.1v.07h-1.07v-.06h.1c.18-.02.22-.02.22-.67v-.74c0-.51-.21-.74-.53-.74-.29,0-.48.17-.61.39v1.08c0,.65.04.66.22.67h.1v.07h-1.07v-.06h.1c.18-.02.22-.02.22-.67v-.79c0-.65-.04-.66-.22-.67h-.1v-.07h.73v.35c.11-.19.33-.41.7-.41s.68.17.81.49c.13-.28.39-.49.74-.49.46,0,.87.25.87.85v.73c0,.65.04.66.23.67h.1v.07h-1.07Z"/>
      <path class="cls-1" d="M63.01,99.33v-.35c-.12.19-.32.4-.71.4-.47,0-.82-.23-.82-.64s.31-.62.92-.62c.25,0,.41.04.6.12v-.62c0-.34-.19-.54-.55-.54-.27,0-.36.05-.36.12,0,.07.09.12.09.27s-.11.25-.25.25c-.16,0-.26-.11-.26-.25,0-.25.27-.46.78-.46s.97.25.97.79v.79c0,.65.04.66.23.67h.1v.07h-.73ZM62.44,99.28c.22,0,.45-.16.56-.38v-.59c-.17-.08-.32-.12-.53-.12-.25,0-.53.1-.53.58,0,.4.23.51.49.51Z"/>
      <path class="cls-1" d="M67.02,99.33v-.06h.1c.19-.02.23-.02.23-.67v-.74c0-.51-.22-.74-.53-.74s-.52.21-.64.46c.02.08.04.17.04.29v.73c0,.65.04.66.22.67h.1v.07h-1.07v-.06h.1c.18-.02.22-.02.22-.67v-.74c0-.51-.21-.74-.53-.74-.29,0-.48.17-.61.39v1.08c0,.65.04.66.22.67h.1v.07h-1.07v-.06h.1c.18-.02.22-.02.22-.67v-.79c0-.65-.04-.66-.22-.67h-.1v-.07h.73v.35c.11-.19.33-.41.7-.41s.68.17.81.49c.13-.28.39-.49.74-.49.46,0,.87.25.87.85v.73c0,.65.04.66.23.67h.1v.07h-1.07Z"/>
      <path class="cls-1" d="M69.45,99.39c-.72,0-1.13-.57-1.13-1.19s.42-1.18,1.13-1.18,1.14.57,1.14,1.19-.42,1.19-1.14,1.19ZM69.45,97.09c-.53,0-.65.5-.65,1.12s.12,1.12.65,1.12.65-.5.65-1.12-.12-1.12-.65-1.12Z"/>
      <path class="cls-1" d="M72.19,98.84c0,.31-.08.55-.46.55s-.6-.25-.6-.77v-1.48h-.36v-.07h.36v-.81h.42v.81h.58v.07h-.58v1.48c0,.45.06.67.29.67.2,0,.3-.14.3-.45h.06Z"/>
      <path class="cls-1" d="M73.53,99.39c-.72,0-1.13-.57-1.13-1.19s.42-1.18,1.13-1.18,1.14.57,1.14,1.19-.42,1.19-1.14,1.19ZM73.53,97.09c-.53,0-.65.5-.65,1.12s.12,1.12.65,1.12.65-.5.65-1.12-.12-1.12-.65-1.12Z"/>
      <path class="cls-1" d="M77.79,99.12c-.22,0-.41-.11-.49-.33-.11.16-.29.36-.64.36-.43,0-.75-.21-.75-.58s.27-.57.83-.57c.22,0,.38.04.54.11v-.58c0-.29-.17-.46-.5-.46-.24,0-.33.04-.33.11,0,.06.08.12.08.24s-.11.23-.23.23c-.14,0-.24-.1-.24-.23,0-.23.25-.42.7-.42s.88.22.88.71v.77c0,.41.05.54.21.54.28,0,.51-.33.51-1.01,0-1.13-.78-1.67-1.54-1.67-.84,0-1.51.59-1.51,1.79,0,1.04.53,1.79,1.58,1.79.52,0,.86-.14,1.17-.43l.04.05c-.32.31-.7.45-1.23.45-1.15,0-1.76-.78-1.76-1.86,0-.97.58-1.85,1.71-1.85.96,0,1.66.68,1.66,1.73,0,.66-.3,1.1-.71,1.1ZM77.29,98.7v-.52c-.16-.07-.29-.11-.48-.11-.23,0-.47.11-.47.53,0,.37.23.45.45.45s.41-.14.5-.34Z"/>
      <path class="cls-1" d="M79.04,99.86c0-.16.11-.26.26-.26.13,0,.25.1.25.26s-.09.18-.09.29c0,.07.13.17.45.17.6,0,.68-.35.68-.94v-.04c-.16.04-.31.06-.44.06-.77,0-1.23-.53-1.23-1.16,0-.82.63-1.15,1.25-1.15h1.15v.06h-.1c-.19.01-.23.02-.23.67v1.56c0,.64-.33,1-1.09,1-.54,0-.87-.27-.87-.51ZM80.59,97.15h-.42c-.54,0-.76.53-.76,1.08,0,.69.23,1.1.74,1.1.15,0,.27-.02.44-.06v-2.11Z"/>
      <path class="cls-1" d="M84.66,99.33v-.06h.1c.19-.02.23-.02.23-.67v-.74c0-.51-.22-.74-.53-.74s-.52.21-.64.46c.02.08.04.17.04.29v.73c0,.65.04.66.22.67h.1v.07h-1.07v-.06h.1c.18-.02.22-.02.22-.67v-.74c0-.51-.21-.74-.53-.74-.29,0-.48.17-.61.39v1.08c0,.65.04.66.22.67h.1v.07h-1.07v-.06h.1c.18-.02.22-.02.22-.67v-.79c0-.65-.04-.66-.22-.67h-.1v-.07h.73v.35c.11-.19.33-.41.7-.41s.68.17.81.49c.13-.28.39-.49.74-.49.46,0,.87.25.87.85v.73c0,.65.04.66.23.67h.1v.07h-1.07Z"/>
      <path class="cls-1" d="M87.58,99.33v-.35c-.12.19-.32.4-.71.4-.47,0-.82-.23-.82-.64s.31-.62.92-.62c.25,0,.41.04.6.12v-.62c0-.34-.19-.54-.55-.54-.27,0-.36.05-.36.12,0,.07.09.12.09.27s-.11.25-.25.25c-.16,0-.26-.11-.26-.25,0-.25.27-.46.78-.46s.97.25.97.79v.79c0,.65.04.66.23.67h.1v.07h-.73ZM87,99.28c.22,0,.45-.16.56-.38v-.59c-.17-.08-.32-.12-.53-.12-.25,0-.53.1-.53.58,0,.4.23.51.49.51Z"/>
      <path class="cls-1" d="M88.48,99.33v-.06h.1c.18-.02.22-.02.22-.67v-.79c0-.65-.04-.66-.22-.67h-.1v-.07h.74v1.52c0,.65.04.66.22.67h.1v.07h-1.07ZM89.01,96.45c-.13,0-.23-.1-.23-.25s.1-.25.23-.25.24.09.24.25-.1.25-.24.25Z"/>
      <path class="cls-1" d="M89.79,99.33v-.06h.1c.18-.02.22-.02.22-.67v-1.91c0-.65-.04-.66-.22-.67h-.1v-.07h.74v2.64c0,.65.04.66.22.67h.1v.07h-1.07Z"/>
      <path class="cls-1" d="M91.7,99.33c-.15,0-.25-.11-.25-.28,0-.16.11-.27.25-.27s.26.11.26.27-.11.28-.25.28Z"/>
      <path class="cls-1" d="M93.72,99.39c-.75,0-1.13-.58-1.13-1.18s.37-1.19,1.18-1.19c.53,0,.82.28.82.52,0,.16-.11.27-.27.27-.15,0-.27-.11-.27-.27s.09-.22.09-.3c0-.06-.06-.15-.37-.15-.63,0-.7.55-.7,1.09s.1,1.12.75,1.12c.4,0,.65-.18.75-.56h.07c-.1.44-.4.67-.92.67Z"/>
      <path class="cls-1" d="M96.06,99.39c-.72,0-1.13-.57-1.13-1.19s.42-1.18,1.13-1.18,1.14.57,1.14,1.19-.42,1.19-1.14,1.19ZM96.06,97.09c-.53,0-.65.5-.65,1.12s.12,1.12.65,1.12.65-.5.65-1.12-.12-1.12-.65-1.12Z"/>
      <path class="cls-1" d="M100.58,99.33v-.06h.1c.18-.02.22-.02.22-.67v-.74c0-.51-.21-.74-.53-.74s-.52.21-.64.46c.02.08.04.17.04.29v.73c0,.65.04.66.23.67h.1v.07h-1.07v-.06h.1c.19-.02.23-.02.23-.67v-.74c0-.51-.22-.74-.53-.74-.29,0-.48.17-.61.39v1.08c0,.65.04.66.23.67h.1v.07h-1.07v-.06h.1c.19-.02.23-.02.23-.67v-.79c0-.65-.04-.66-.23-.67h-.1v-.07h.73v.35c.12-.19.33-.41.7-.41s.68.17.81.49c.13-.28.38-.49.74-.49.46,0,.87.25.87.85v.73c0,.65.04.66.22.67h.1v.07h-1.07Z"/>
    </g>
    <g>
      <path class="cls-2" d="M244.22,132.43s-.49.12-.67-.77c-.11-.57-.26-.91-.49-1.1-.21-.17-.57-.28-.95-.14-.62.23-.64.75-.56,1.25.05.3.24,1.01.41,1.74.1.45.15.69.13.91-.02.27-.13.56-.57.74-.33.13-.67.04-.88-.11-.26-.18-.33-.45-.31-.66.02-.22.12-.39.22-.5.14-.16.38-.27.67-.26.47,0,.59.32.59.32,0,0-.05-.51-.69-.77-.41-.17-1.05-.05-1.45.26-.35.28-.71.72-.68,1.36s.37.98.67,1.19c.27.19.93.42,1.59.34.58-.08,1.1-.44,1.32-1.06.17-.47.09-.9-.16-1.69-.1-.32-.4-1-.56-1.43-.07-.19-.17-.53-.13-.8s.18-.42.37-.46.35.01.45.14.21.36.24.59c.02.19.02.51.08.74s.27.45.58.5c.41.07.7-.14.79-.31Z"/>
      <path class="cls-2" d="M237.87,135.33s-.07.16.22.33c.27.15,1.17.33,1.43.45.44.19.81.47,1.17,1.05s.39,1.01.39,1.01c0,0,.03-.64.46-1.19.43-.55.86-.82,1.24-.95.38-.13,1.1-.07,1.39-.37.16-.17.23-.27.23-.27,0,0-.21.8-.42,1.21-.11.22-.39.79-1.25.94-.66.12-1.04.1-1.2.35-.02.04.13-.62.69-1.1.5-.43,1.19-.68,1.37-.69,0,0-.7-.05-1.4.48-.39.29-.59.64-.74.94-.11.22-.22.83-.27,1.18-.03.2-.09.44-.16-.01s-.25-.98-.49-1.31c-.22-.31-.53-.72-.99-.95-.35-.18-.99-.35-.99-.35,0,0,.63.28,1.09.63.41.31.45.41.66.67.15.18.39.65.29.54-.15-.17-.78-.25-1.24-.46-.78-.36-1.14-.95-1.14-.95,0,0-.54-.69-.34-1.18Z"/>
    </g>
    <image width="450" height="450" transform="translate(14.5 112.13) scale(.06)" xlink:href="../../../../Downloads/qrcode_sakineyamamoto-hash.github.io.png"/>
  </g>
</svg>